<svg width="20" height="21" viewBox="0 0 20 21" fill="none" xmlns="http://www.w3.org/2000/svg">
<path d="M2.22222 20.9524H17.7778C18.3671 20.9524 18.9324 20.7316 19.3491 20.3387C19.7659 19.9457 20 19.4128 20 18.8571V7.33302C20 7.05517 19.8829 6.78869 19.6746 6.59222C19.4662 6.39575 19.1836 6.28538 18.8889 6.28538H15.5556V5.47136C15.5556 2.73806 13.4411 0.290762 10.5556 0.025708C9.78319 -0.0466713 9.00332 0.0341949 8.2661 0.263104C7.52887 0.492013 6.85064 0.863896 6.27502 1.35483C5.6994 1.84576 5.23915 2.44486 4.92388 3.1136C4.60861 3.78234 4.44529 4.5059 4.44444 5.23773V6.28538H1.11111C0.816426 6.28538 0.533811 6.39575 0.325437 6.59222C0.117063 6.78869 0 7.05517 0 7.33302V18.8571C0 19.4128 0.234126 19.9457 0.650874 20.3387C1.06762 20.7316 1.63285 20.9524 2.22222 20.9524ZM15.5556 8.38066V10.4759H13.3333V8.38066H15.5556ZM6.66667 5.23773C6.66667 3.50493 8.16222 2.0948 10 2.0948C11.8378 2.0948 13.3333 3.50493 13.3333 5.23773V6.28538H6.66667V5.23773ZM4.44444 8.38066H6.66667V10.4759H4.44444V8.38066Z" fill="black"/>
</svg>
