<svg width="20" height="20" viewBox="0 0 20 20" fill="none" xmlns="http://www.w3.org/2000/svg">
    <path d="M18.8062 5.1023C19.2787 4.71657 19.5387 4.2043 19.5387 3.65937C19.5387 3.11444 19.2787 2.60217 18.8062 2.21644L16.8237 0.59799C16.3512 0.212256 15.7238 0 15.0562 0C14.3888 0 13.7612 0.212256 13.29 0.596969L0 11.4128V15.9182H5.51625L18.8062 5.1023ZM15.0562 2.04092L17.04 3.65835L15.0525 5.27476L13.07 3.65733L15.0562 2.04092ZM2.5 13.8772V12.2598L11.3 5.09822L13.2825 6.71667L4.48375 13.8772H2.5ZM0 17.9591H20V20H0V17.9591Z" fill="black"/>
</svg>