<svg width="17" height="17" viewBox="0 0 17 17" fill="none" xmlns="http://www.w3.org/2000/svg">
<path d="M7.26375 0.82501L9.6725 3.23376C9.88395 3.44501 10.0418 3.70376 10.133 3.98841C10.2241 4.27307 10.2459 4.57539 10.1965 4.87017C10.1471 5.16495 10.0279 5.44365 9.84889 5.68302C9.6699 5.92239 9.43628 6.11551 9.1675 6.24626L7.10875 7.24876C6.81116 7.39377 6.58324 7.65091 6.475 7.96376L6 9.34126C5.93079 9.54168 5.81173 9.72119 5.65403 9.86292C5.49633 10.0047 5.30517 10.1039 5.09853 10.1514C4.89189 10.1989 4.67656 10.1931 4.4728 10.1345C4.26903 10.0758 4.08354 9.96633 3.93375 9.81626L2.75 8.63251L1.13375 10.2475H0.25V9.36376L1.86625 7.75001L0.68125 6.56501C0.531474 6.4152 0.422226 6.22979 0.363765 6.02618C0.305303 5.82257 0.299546 5.60745 0.347033 5.401C0.394521 5.19456 0.493695 5.00357 0.635244 4.84596C0.776793 4.68836 0.956073 4.56932 1.15625 4.50001L2.53375 4.02501C2.68922 3.97112 2.83252 3.88707 2.95543 3.77767C3.07834 3.66827 3.17845 3.53568 3.25 3.38751L4.2525 1.32876C4.38325 1.05998 4.57637 0.826359 4.81574 0.647368C5.05511 0.468377 5.33381 0.349205 5.62859 0.29979C5.92337 0.250374 6.22569 0.272147 6.51035 0.363293C6.795 0.454438 7.05375 0.612316 7.265 0.82376L7.26375 0.82501ZM1.5 13.375V11.4088L2.6925 10.2163L2.75 10.2725V13.375C2.75 13.8723 2.94754 14.3492 3.29917 14.7008C3.65081 15.0525 4.12772 15.25 4.625 15.25H9V12.125C9 11.2962 9.32924 10.5014 9.91529 9.9153C10.5013 9.32925 11.2962 9.00001 12.125 9.00001H15.25V4.62501C15.25 4.12773 15.0525 3.65082 14.7008 3.29919C14.3492 2.94755 13.8723 2.75001 13.375 2.75001H10.8275C10.7765 2.68996 10.7231 2.632 10.6675 2.57626L9.59125 1.50001H13.375C14.2038 1.50001 14.9987 1.82925 15.5847 2.4153C16.1708 3.00135 16.5 3.79621 16.5 4.62501V9.21501C16.4998 10.0434 16.1707 10.8379 15.585 11.4238L11.4237 15.585C10.8379 16.1707 10.0434 16.4998 9.215 16.5H4.625C3.7962 16.5 3.00134 16.1708 2.41529 15.5847C1.82924 14.9987 1.5 14.2038 1.5 13.375ZM10.25 14.9375C10.3538 14.8688 10.45 14.79 10.54 14.7L14.7013 10.54C14.79 10.4513 14.8688 10.3538 14.9388 10.25H12.125C11.6277 10.25 11.1508 10.4476 10.7992 10.7992C10.4475 11.1508 10.25 11.6277 10.25 12.125V14.9375Z" fill="black"/>
</svg>
