<svg fill="none" xmlns="http://www.w3.org/2000/svg" viewBox="0 0 796 621">
    <path fill-rule="evenodd" clip-rule="evenodd" d="M180.75 523.345c829.93 301.494 586.978-189.114 566.889-280.348C622.71-28.893 506.41 10.38 408.636 10.38c-97.774 0-516.667-103.922-382.32 373.999 24.483 56.795 51.477 87.609 154.434 138.966z" fill="#EDF5FF"/>
    <path fill-rule="evenodd" clip-rule="evenodd" d="M179.931 198.047c21.935 16.018 43.928 18.828 56.414 18.73 14.46-.403 5.792-11.323-.076-16.898-13.27-7.271-63.92-57.145-78.608-33.632-4.006 6.374.771 22.252 22.27 31.8z" fill="#303030"/>
    <path fill-rule="evenodd" clip-rule="evenodd" d="M242.574 216.016c18.144-9.679 29.028-19.673 37.847-29.651 2.074-1.608-9.633-17.556-13.94-13.683-6.888 5.36-15.652 10.408-37.052 26.842-8.55 9.877 4.82 20.171 13.145 16.492z" fill="#303030"/>
    <path fill-rule="evenodd" clip-rule="evenodd" d="M277.563 182.586c-6.09 1.963-12.985-4.413-11.838-8.932l.252-.421c2.041-1.341 3.771-2.595 5.182-3.819 4.892-4.189 13.99 6.576 11.634 8.312-1.422 1.024-3.185 2.715-5.23 4.86z" fill="#EAE7F0"/>
    <path fill-rule="evenodd" clip-rule="evenodd" d="M195.314 424.98c-.175 1.671.745 2.973 1.234 4.65 2.632 1.566 13.47.634 17.095.474l.158-1.604c3.46.157 4.609.596 8.128 1.328 14.117 2.932 30.36-3.024 28.45-5.513-.356-.465-.783-1.093-1.324-1.275-1.209-.803-8.886-1.124-12.717-1.004-11.433 1.199-28.407-9.108-28.85-11.001-1.815-1.145-7.469-4.577-7.469-4.577.001 0-.758 11.88-4.705 18.522z" fill="#28292A"/>
    <path fill-rule="evenodd" clip-rule="evenodd" d="M194.235 406.88c4.51 3.546-4.495 16.63 2.725 20.138 4.414 1.084 14.345-1.543 24.836 1.584 7.103 2.118 24.516-.11 28.737-4.376-.71-2.905-6.015-3.143-12.49-2.552-4.695.431-14.94-2.743-24.569-8.721-.638-.375-7.898-26.21-19.239-6.073z" fill="#040606"/>
    <path fill-rule="evenodd" clip-rule="evenodd" d="M132.519 465.658l11.299-6.127-11.233-1.122-.066 7.249z" fill="#171717"/>
    <path fill-rule="evenodd" clip-rule="evenodd" d="M132.491 448.167s-10.518 3.14-8.504 11.653c1.348 2.402 4.919 4.095 8.124 5.389l.217-1.712c3.903.65 8.117 5.72 10.712 7.747 4.16 3.253 14.291 4.743 25.177 3.799 3.292-.284 4.527-1.212 4.476-2.009-.035-.546-.85-1.936-1.207-2.308-.571-1.178-10.978-8.06-14.336-9.472-8.588-3.605-12.619-11.109-13.492-12.824-.893-1.715-3.748-6.936-3.748-6.936.001-.003-.167 2.456-7.419 6.673z" fill="#28292A"/>
    <path fill-rule="evenodd" clip-rule="evenodd" d="M132.26 438.022c1.287 4.965-10.079 13.499-6.614 19.628 2.809 2.861 12.421 5.049 18.742 12.312 2.318 2.667 12.304 4.614 21.686 4.057 3.346-.197 6.307-1.302 6.615-2.21.25-2.996-8.847-7.485-14.09-11.266-2.878-2.079-11.471-10.077-12.219-11.796-.263-.598-.076-.776 0-2.232-.185-1.574.068-4.338.309-6.367-1.507-1.224-7.75-5.707-14.429-2.126z" fill="#040606"/>
    <path fill-rule="evenodd" clip-rule="evenodd" d="M138.857 291.985c5.595 8.412 10.166 16.461 15.008 25.203 10.763 23.924 25.849 27.873 27.599 48.929 8.705 3.725 25.673 7.94 24.779-2.393-.553-9.083 1.136-13.542-.14-20.559-.366-1.046-2.942-10.195-3.751-13.943-4.117-20.901-7.923-35.415-20.952-65.325 0 0-18.472-.007-36.403 6.689.678 3.295-6.952 20.18-6.14 21.399z" fill="#21272B"/>
    <path fill-rule="evenodd" clip-rule="evenodd" d="M119.711 385.95c-3.038 18.53 11.65 32.818 25.985 4.588.606-1.192 5.464-11.09 5.749-12.375 1.121-5.5 2.533-12.148 3.778-16.65 4.446-16.095 9.353-25.697 11.794-57.253 7.74-4.747 6.48-15.821 2.631-36.739-24.543 17.996-50.128 7.316-57.308 3.584-3.776 13.802-3.22 33.839 2.288 36.141.161 8.295.525 22.59 2.303 33.075 3.171 18.696 4.576 32.469 2.78 45.629z" fill="#353B40"/>
    <path fill-rule="evenodd" clip-rule="evenodd" d="M122.971 378.474c9.534-20.975 16.313-2.083 23.008 8.606-1.224 16.533.558 51.644 2.861 64.653-2.443 10.476-25.929 3.556-25.247-1.432-2.798-23.898-17.607-41.498-.622-71.827z" fill="#353B40"/>
    <path fill-rule="evenodd" clip-rule="evenodd" d="M137.296 162.073c-9.161 4.441-23.945 14.196-33.021 28.705-7.134 9.648 2.453 14.915 2.681 16.787-4.321 19.859-10.317 7.196-7.693 21.563 1.735 9.512 5.588 50.297 11.639 76.218 4.377 16.806 68.489 10.519 81.88-16.438-7.611-34.359 1.075-104.097-15.015-123.262-2.382-2.841-6.506-5.667-10.19-5.299-13.161 1.276-22.319-2.521-30.281 1.726z" fill="#303030"/>
    <path fill-rule="evenodd" clip-rule="evenodd" d="M181.456 361.221c5.862-21.836 15.854-16.382 24.463-6.672.446 16.303 7.67 50.093 13.227 60.028-1.246 7.85-24.082 11.683-25.697 6.263-6.013-29.49-16.881-34.359-11.993-59.619z" fill="#21272B"/>
    <path fill-rule="evenodd" clip-rule="evenodd" d="M122.504 172.046c-.381 5.29 2.92 11.008 10.145 17.407 18.945 16.785 33.65 36.696 38.53 52.697 12.892-7.444 10.838-87.428-14.118-83.843-11.209-3.058-33.849 3.91-34.557 13.739z" fill="#535554"/>
    <path fill-rule="evenodd" clip-rule="evenodd" d="M130.008 171.282c-.052 7.359 37.79 29.597 41.278 70.868 3.395-12.471 1.448-72.033-14.745-79.56-8.302-3.858-26.475.757-26.533 8.692z" fill="#EAE7F0"/>
    <path fill-rule="evenodd" clip-rule="evenodd" d="M130.032 169.446c-.792 8.569 18.387 17.964 24.702 19.546.453-3.215 3.086-8.544 3.577-10.644 3.541 1.751 4.054 2.632 8.106 5.261-.133-6.18-1.518-18.406-10.308-21.169-8.902-2.799-25.338-.999-26.077 7.006z" fill="#fff"/>
    <path fill-rule="evenodd" clip-rule="evenodd" d="M135.035 149.016s1.407 10.637-1.261 18.886c3.432 6.922 20.396 10.301 25.15 10.215 2.196-1.353 2.475-5.322 2.47-12.482-6.245-3.593-6.659-3.963-1.462-18.5.882-4.57-24.899 1.881-24.897 1.881z" fill="#D5855B"/>
    <path fill-rule="evenodd" clip-rule="evenodd" d="M173.724 135.93c-.138 1.914-2.789 2.163.417 10.034 1.972 4.859 1.048 4.91-1.503 13.158-1.443 4.671-4.879 14.568-21.38 5.882 0 0-15.927-11.622-20.147-21.088-4.221-9.471-3.109-18.595 6.051-25.559-1.711 0 32.969-10.28 36.562 17.573z" fill="#F1A274"/>
    <path fill-rule="evenodd" clip-rule="evenodd" d="M154.006 196.241c2.534-2.834 4.923-9.311 7.456-12.145 3.269.993 7.827 6.599 11.094 7.594.174-4.631.616-9.692-2.099-13.509l-10.518-.063-11.1 5.271c.315 5.02 2.351 9.138 5.167 12.852z" fill="#171717"/>
    <path fill-rule="evenodd" clip-rule="evenodd" d="M248.018 422.271c-2.114-1.245-8.264.096-12.392-.366-5.421-.607-15.406-4.508-12.033-3.035 1.719.75 11.52 4.277 13.423 4.427 4.403.353 11.199-.632 11.002-1.026zM152.606 469.517c2.057 2.141 13.495 2.711 16.85 1.688 1.889-.576-.383-1.458-1.424-1.458-1.297 0-2.379.241-3.643.364-1.875.183-5.056.132-6.945-.182-.775-.129-4.781-1.079-4.838-.412z" fill="#8A8D8D"/>
    <path fill-rule="evenodd" clip-rule="evenodd" d="M273.816 175.439c-4.394-1.442-3.584-6.439-1.561-7.748 4.577-2.193 17.379-8.958 18.103-9.31 1.253-.615.107-.175 1.349-.641 1.726-.653 2.681.734 1.931 3.334 1.822 2.707.376 3.706-1.538 5.336 1.661 1.142 2.339 1.84-2.122 5.139.544 1.604 2.152 1.662 1.309 2.503-2.901 2.199-9.317 6.027-13.233 5.145-3.267-.738-2.514-1.582-4.238-3.758z" fill="#D5855B"/>
    <path fill-rule="evenodd" clip-rule="evenodd" d="M291.834 139.352c2.097 2.24 6.986 1.546 10.921-1.552 3.919-3.087 5.412-7.395 3.345-9.641l-3.938-4.208c-5.089-5.3-19.281 5.668-14.099 11.374l3.771 4.027z" fill="#B05931"/>
    <path fill-rule="evenodd" clip-rule="evenodd" d="M280.246 180.534l19.029-44.771c1.007-2.29-1.686-3.313-2.689-1.172l-20.82 44.91c-.917 1.992 3.543 3.332 4.48 1.033z" fill="#883A24"/>
    <path fill-rule="evenodd" clip-rule="evenodd" d="M275.668 179.322l21.611-45.818.962-.087-21.595 47.118c-.509-.204-1.139-.636-.978-1.213z" fill="#B05931"/>
    <path fill-rule="evenodd" clip-rule="evenodd" d="M297.872 132.54c4.273-2.966 9.616-3.636 11.893-1.492 2.279 2.147.652 6.319-3.621 9.288-4.274 2.967-9.617 3.634-11.894 1.489-2.279-2.147-.652-6.318 3.622-9.285z" fill="#C18F2D"/>
    <path fill-rule="evenodd" clip-rule="evenodd" d="M305.217 126.931c-5.807-3.428-18.651 5.489-15.178 10.935 1.054 1.904 2.79 3.154 4.107 4.008-3.983-5.729 9.865-14.952 15.394-10.878-.769-1.344-2.643-3.024-4.323-4.065z" fill="#FBC617"/>
    <path fill-rule="evenodd" clip-rule="evenodd" d="M297.999 145.371c2.112 2.277 7.038 1.571 11-1.575 3.95-3.142 5.454-7.523 3.371-9.807l-2.565-2.767c-5.126-5.386-19.421 5.766-14.201 11.566l2.395 2.583z" fill="#B05931"/>
    <path fill-rule="evenodd" clip-rule="evenodd" d="M301.305 136.165c3.968-2.968 8.93-3.637 11.045-1.491s.605 6.317-3.363 9.285-8.93 3.636-11.046 1.49c-2.114-2.146-.603-6.319 3.364-9.284z" fill="#883A24"/>
    <path fill-rule="evenodd" clip-rule="evenodd" d="M301.898 136.872c3.357-2.426 7.555-2.975 9.344-1.218 1.79 1.757.512 5.166-2.845 7.595-3.358 2.429-7.556 2.977-9.346 1.221-1.789-1.757-.511-5.17 2.847-7.598z" fill="#752E28"/>
    <path fill-rule="evenodd" clip-rule="evenodd" d="M274.697 165.849c1.308-1.512 5.348-4.815 7.009-6.009 2.142-1.535 3.755-1.934 5.903-3.468 1.174 1.68.853 3.445-3.385 5.901-5.55 4.416-3.335 9.581-9.582 9.799-2.878.1-4.44-1.035.055-6.223z" fill="#F1A274"/>
    <path fill-rule="evenodd" clip-rule="evenodd" d="M291.212 161.465l-8.125 4.048c-2.471 1.231-.63 3.748 1.94 2.684l8.302-3.43c2.571-1.064.354-4.533-2.117-3.302zM290.609 166.256l-6.5 3.37c-1.977 1.028-.504 3.123 1.552 2.239l6.642-2.859c2.056-.887.283-3.781-1.694-2.75z" fill="#F1A274"/>
    <path fill-rule="evenodd" clip-rule="evenodd" d="M290.237 170.909l-5.971 1.329c-1.818.407-1.197 2.501.645 2.232l5.953-.868c1.843-.268 1.19-3.1-.627-2.693z" fill="#F1A274"/>
    <path fill-rule="evenodd" clip-rule="evenodd" d="M168.199 484.719l85.223 41.346 128.408-62.678.528-12.227-214.686 21.356.527 12.203z" fill="#883A24"/>
    <path fill-rule="evenodd" clip-rule="evenodd" d="M167.672 484.948l86.605 41.117.023-.01v-56.773l-86.628 3.511v12.155z" fill="#752E28"/>
    <path fill-rule="evenodd" clip-rule="evenodd" d="M167.672 472.668l85.961 41.315 128.725-62.646-84.976-41.254-129.71 62.585z" fill="#B05931"/>
    <path fill-rule="evenodd" clip-rule="evenodd" d="M180.677 471.618l72.938 35.117 113.228-54.855.449-10.385-187.065 19.757.45 10.366z" fill="#883A24"/>
    <path fill-rule="evenodd" clip-rule="evenodd" d="M180.227 471.741l74.054 34.994.019-.01v-48.316l-74.073 2.986v10.346z" fill="#752E28"/>
    <path fill-rule="evenodd" clip-rule="evenodd" d="M180.227 461.214l73.567 35.855 113.498-56.018-72.722-35.801-114.343 55.964z" fill="#B05931"/>
    <path fill-rule="evenodd" clip-rule="evenodd" d="M253.198 487.404l94.96-46.19.302-191.815-95.416 47.122.154 190.883z" fill="#97422B"/>
    <path fill-rule="evenodd" clip-rule="evenodd" d="M205.336 463.745l48.952 23.659.012-.006V294.799l-.012.006-48.952-23.659v192.599z" fill="#752E28"/>
    <path fill-rule="evenodd" clip-rule="evenodd" d="M266.855 453.576l68.833-33.246.218-126.229-69.051 33.347v126.128z" fill="#B05931"/>
    <path fill-rule="evenodd" clip-rule="evenodd" d="M266.855 447.535l62.564-30.328.21-120.69-62.774 30.427v120.591z" fill="#913C29"/>
    <path fill-rule="evenodd" clip-rule="evenodd" d="M329.197 416.752l6.484 2.996.224-125.648c-9.183 4.297-27.8 13.013-6.493 3.038l-.215 119.614z" fill="#752E28"/>
    <path fill-rule="evenodd" clip-rule="evenodd" d="M244.256 453.576l-32.427-16.006-.215-126.555 32.642 16.111v126.45z" fill="#A5482C"/>
    <path fill-rule="evenodd" clip-rule="evenodd" d="M244.256 447.535l-26.16-13.015-.205-121.089 26.365 13.115v120.989z" fill="#692E27"/>
    <path fill-rule="evenodd" clip-rule="evenodd" d="M218.321 433.666l-6.482 2.996-.225-125.647c9.184 4.299 27.8 13.012 6.492 3.04l.215 119.611z" fill="#883A24"/>
    <path fill-rule="evenodd" clip-rule="evenodd" d="M319.584 314.639l-43.802 21.335-.139 88.606 43.941-21.405v-88.536zM221.658 327.929l16.189 8.184.132 88.467-16.321-8.254v-88.397z" fill="#A5482C"/>
    <path fill-rule="evenodd" clip-rule="evenodd" d="M319.584 320.68l-37.935 18.548.021.01-.131 82.545c-7.495 3.334 35.601-16.28 38.045-17.477V320.68z" fill="#97422B"/>
    <path fill-rule="evenodd" clip-rule="evenodd" d="M221.658 333.969l11.755 5.498-.021.01.133 81.767c7.602 3.302-9.389-3.252-11.867-4.433v-82.842zM280.664 339.059l-4.894-2.673-.127 88.194 4.899-2.362.122-83.159z" fill="#752E28"/>
    <path fill-rule="evenodd" clip-rule="evenodd" d="M232.957 339.059l4.894-2.673.127 88.194-4.899-2.362-.122-83.159z" fill="#883A24"/>
    <path fill-rule="evenodd" clip-rule="evenodd" d="M216.626 274.745l32.045 15.962 78.447-38.743-31.472-15.855-79.02 38.636z" fill="#B05931"/>
    <path fill-rule="evenodd" clip-rule="evenodd" d="M292.315 237.429l66.567 31.569.023-.012V242.51l-54.768-25.769-36.24-1.376v17.257l24.418 4.807z" fill="#8F3A29"/>
    <path fill-rule="evenodd" clip-rule="evenodd" d="M249.952 322.99l114.94-56.299.564-27.063-115.504 56.3v27.062z" fill="#9E492D"/>
    <path fill-rule="evenodd" clip-rule="evenodd" d="M196.548 267.682l18.399 8.296 80.783-38.632-24.751-4.861-74.431 35.197z" fill="#A5482C"/>
    <path fill-rule="evenodd" clip-rule="evenodd" d="M193.553 268.998l56.518 27.176 115.482-56.349-55.365-27.013-5.759 4.469 46.922 21.88-103.1 50.165-47.648-23.52-7.05 3.192z" fill="#CB7546"/>
    <path fill-rule="evenodd" clip-rule="evenodd" d="M310.197 212.812l-40.377-.639-1.923 3.192 36.532 1.916 5.768-4.469z" fill="#B05931"/>
    <path fill-rule="evenodd" clip-rule="evenodd" d="M181.527 289.8l68.4 33.174v-26.881l-56.367-27.294-36.539-1.4v17.562l24.506 4.839z" fill="#8F3A29"/>
    <path fill-rule="evenodd" clip-rule="evenodd" d="M200.603 265.806l-31.158-2.279-6.469 3.3 33.782 2.171 3.845-3.192z" fill="#B05931"/>
    <path fill-rule="evenodd" clip-rule="evenodd" d="M96.979 258.29c-.974 2.605 21.933 5.94 22.452-.662 4.201-15.572 6.972-9.469 9.695-41.208 9.214-23.003-2.341-30.465-10.933-31.009-33.26-2.106-21.213 72.879-21.214 72.879z" fill="#303030"/>
    <path fill-rule="evenodd" clip-rule="evenodd" d="M170.894 268.729c2.498-.216 4.1-3.172 5.478-4.823 1.566-1.861 5.809-.939 7.479-3.849 1.6-2.794-10.729 1.133-12.418 1.729-1.359.476-5.466 2.978-4.976 4.58.852 2.787 2.434 2.166 4.437 2.363z" fill="#F3AA75"/>
    <path fill-rule="evenodd" clip-rule="evenodd" d="M163.265 273.994c-2.24-.869-4.897-7.097-1.521-7.582 2.789-.931 13.584-4.443 14.39-4.56 1.349-.215 2.227-.272 3.629-.348 1.94-.109 2.684.149 4.385 1.025 1.462.663 5.725 2.467 6.975 3.157 2.102 1.443 5.127 3.064 6.68 4.749-.261.418-.983 1.111-1.663 1.124.634.627 2.023 1.483 1.57 1.927-1.308 1.26-3.222.474-3.222.474l.866.571c-1.13 1.532-2.721 1.416-3.777 1.18-1.03-.232-4.167-1.575-5.211-1.84-2.524-.64-8.35-2.159-2.543-.236 2.535.806 5.903 2.458 4.631 3.141-2.206 1.181-3.501-.501-6.134-1.094-2.323-.514-7.563-1.085-10.1-.594-5.469 1.061-5.873.096-8.955-1.094z" fill="#F0A174"/>
    <path fill-rule="evenodd" clip-rule="evenodd" d="M155.117 275.471c2.493-2.9 3.125-10.883 1.039-15.199 2.437.895 4.686 1.659 6.674 2.239 6.893.972 5.226 11.363 2.338 13.171-2.007.644-5.708.08-10.051-.211z" fill="#EAE7F0"/>
    <path fill-rule="evenodd" clip-rule="evenodd" d="M102.364 264.94c14.078 6.424 44.369 14.579 54.631 14.663 5.626-.548 10.482-13.064 3.332-17.892-14.17-4.324-38.98-18.077-51.681-18.353-3.551 5.787-19.139 15.686-6.282 21.582z" fill="#303030"/>
    <path fill-rule="evenodd" clip-rule="evenodd" d="M280.665 245.002c.001-4.911 7.59-8.892 16.949-8.892 9.331 0 16.899 3.955 16.948 8.844v4.043c-.176 11.741-33.679 11.999-33.897-.349v-3.646z" fill="#883A24"/>
    <path fill-rule="evenodd" clip-rule="evenodd" d="M297.615 253.024c8.642 0 15.692-3.527 15.692-7.852s-7.05-7.854-15.692-7.854c-8.644 0-15.695 3.529-15.695 7.854s7.051 7.852 15.695 7.852z" fill="#CB7546"/>
    <path fill-rule="evenodd" clip-rule="evenodd" d="M298.242 251.815c6.914 0 12.554-2.986 12.554-6.643 0-3.66-5.64-6.646-12.554-6.646-6.916 0-12.555 2.986-12.555 6.646 0 3.657 5.639 6.643 12.555 6.643z" fill="#883A24"/>
    <path fill-rule="evenodd" clip-rule="evenodd" d="M309.541 246.379c-.725-3.056-5.803-5.437-11.927-5.437-6.125 0-11.203 2.381-11.927 5.437.724 3.058 5.801 5.436 11.927 5.436 6.124 0 11.202-2.378 11.927-5.436z" fill="#B05931"/>
    <path fill-rule="evenodd" clip-rule="evenodd" d="M172.667 125.404c-.414 2.569-1.9 4.143-4.072 5.159-6.249-.396-8.095-1.428-15.956 1.204-5.622 1.878.397 5.431-2.295 8.468-1.066 1.201-5.449 4.187-4.831 6.249l-4.098-1.393c-4.68-6.075-5.65 1.124-6.25 11.281 0-.003-15.232-20.342-8.43-31.861 4.46-7.544 12.484-14.493 33.988-7.592 3.742 1.198 12.516 4.938 11.944 8.485z" fill="#28292A"/>
    <path fill-rule="evenodd" clip-rule="evenodd" d="M137.32 141.933c-3.571.583-3.894 3.27-3.321 6.604.571 3.34 3.71 7.934 5.775 6.277 2.49-1.996-2.059-3.92-1.209-6.632.465-1.483 2.813-2.304 3.47-2.462 1.756-.431-1.146-4.37-4.715-3.787z" fill="#F0A174"/>
    <path fill-rule="evenodd" clip-rule="evenodd" d="M291.538 157.797l-7.312 3.373c-2.225 1.025-.568 3.123 1.745 2.238l7.473-2.859c2.313-.886.319-3.777-1.906-2.752z" fill="#F1A274"/>
    <path fill-rule="evenodd" clip-rule="evenodd" d="M546.311 179.023c-22.209 15.349-44.466 18.043-57.111 17.949-14.635-.383-5.861-10.851.08-16.194 13.434-6.968 64.703-54.764 79.575-32.231 4.053 6.108-.782 21.325-22.544 30.476z" fill="#6A4939"/>
    <path fill-rule="evenodd" clip-rule="evenodd" d="M483.778 195.857c-18.842-9.302-30.144-18.908-39.304-28.499-2.15-1.545 10.006-16.874 14.479-13.152 7.15 5.153 16.252 10.004 38.476 25.8 8.877 9.497-5.007 19.391-13.651 15.851z" fill="#7A5947"/>
    <path fill-rule="evenodd" clip-rule="evenodd" d="M447.025 164.325c5.877 1.84 12.523-4.135 11.417-8.37l-.244-.391c-1.967-1.261-3.634-2.435-4.995-3.583-4.717-3.926-13.491 6.163-11.219 7.79 1.373.96 3.07 2.544 5.041 4.554z" fill="#EAE7F0"/>
    <path fill-rule="evenodd" clip-rule="evenodd" d="M530.832 395.182c.183 1.615-.767 2.876-1.27 4.497-2.715 1.515-13.888.613-17.625.458l-.16-1.551c-3.569.152-4.752.576-8.378 1.287-14.555 2.833-31.299-2.926-29.331-5.333.366-.45.808-1.057 1.365-1.234 1.247-.777 9.159-1.086 13.11-.971 11.786 1.162 29.285-8.805 29.739-10.638 1.872-1.109 7.699-4.427 7.699-4.427s.782 11.488 4.851 17.912z" fill="#28292A"/>
    <path fill-rule="evenodd" clip-rule="evenodd" d="M531.329 377.68c-4.587 3.446 4.568 16.163-2.772 19.573-4.488 1.054-14.59-1.499-25.259 1.539-7.226 2.059-24.935-.105-29.229-4.252.725-2.824 6.121-3.056 12.706-2.478 4.774.415 15.192-2.67 24.988-8.479.649-.366 8.031-25.475 19.566-5.903z" fill="#040606"/>
    <path fill-rule="evenodd" clip-rule="evenodd" d="M595.005 433.096l-12.255-5.037 12.183-.923.072 5.96z" fill="#171717"/>
    <path fill-rule="evenodd" clip-rule="evenodd" d="M594.621 416.537s10.661 3.049 8.621 11.325c-1.369 2.335-4.987 3.977-8.236 5.235l-.218-1.664c-3.958.631-8.229 5.558-10.86 7.528-4.217 3.16-14.486 4.61-25.518 3.692-3.337-.277-4.591-1.178-4.538-1.952.035-.528.862-1.882 1.224-2.243.576-1.145 11.127-7.831 14.533-9.203 8.701-3.507 12.789-10.799 13.674-12.465.904-1.668 3.798-6.74 3.798-6.74s.168 2.389 7.52 6.487z" fill="#28292A"/>
    <path fill-rule="evenodd" clip-rule="evenodd" d="M595.631 406.892c-1.327 4.815 10.387 13.092 6.814 19.035-2.894 2.776-12.801 4.901-19.314 11.942-2.391 2.586-12.683 4.474-22.353 3.935-3.447-.192-6.502-1.263-6.818-2.145-.259-2.905 9.117-7.259 14.521-10.926 2.966-2.016 11.825-9.769 12.595-11.439.271-.58.076-.753 0-2.166.19-1.524-.069-4.207-.317-6.175 1.552-1.187 7.985-5.531 14.872-2.061z" fill="#040606"/>
    <path fill-rule="evenodd" clip-rule="evenodd" d="M588.928 268.554c-5.773 7.961-10.49 15.578-15.486 23.851-11.104 22.639-26.67 26.377-28.477 46.302-8.98 3.524-26.487 7.514-25.564-2.266.568-8.594-1.174-12.811.145-19.454.374-.99 3.031-9.648 3.867-13.191 4.247-19.782 8.175-33.518 21.621-61.823 0 0 19.054-.005 37.56 6.331-.702 3.118 7.169 19.096 6.334 20.25z" fill="#311A13"/>
    <path fill-rule="evenodd" clip-rule="evenodd" d="M608.086 358.246c3.126 17.691-11.982 31.335-26.728 4.381-.621-1.141-5.62-10.591-5.914-11.819-1.151-5.251-2.604-11.597-3.886-15.899-4.572-15.368-9.62-24.537-12.13-54.667-7.962-4.535-6.665-15.106-2.707-35.083 25.248 17.184 51.563 6.989 58.949 3.421 3.882 13.18 3.31 32.312-2.353 34.511-.167 7.921-.541 21.57-2.368 31.583-3.264 17.852-4.709 31.004-2.863 43.572z" fill="#311A13"/>
    <path fill-rule="evenodd" clip-rule="evenodd" d="M604.06 350.448c-9.64-20.059-16.493-1.993-23.265 8.23 1.239 15.811-.564 49.389-2.89 61.831 2.467 10.021 26.216 3.404 25.526-1.366 2.829-22.858 17.804-39.687.629-68.695z" fill="#682425"/>
    <path fill-rule="evenodd" clip-rule="evenodd" d="M590.176 144.233c9.445 4.257 24.687 13.608 34.044 27.515 7.356 9.248-2.528 14.297-2.764 16.091 4.454 19.036-2.574 28.45-5.278 42.218-1.788 9.121 7.447 26.666 1.209 51.509-4.511 16.11-70.61 10.083-84.418-15.756 7.844-32.935-1.109-99.781 15.482-118.149 2.456-2.723 6.707-5.435 10.505-5.082 13.568 1.223 23.01-2.417 31.22 1.654z" fill="#7A5947"/>
    <path fill-rule="evenodd" clip-rule="evenodd" d="M544.355 334.253c-5.842-20.967-15.806-15.73-24.386-6.406-.442 15.653-7.646 48.099-13.186 57.641 1.243 7.536 24.008 11.216 25.617 6.012 5.995-28.317 16.828-32.993 11.955-57.247z" fill="#311A13"/>
    <path fill-rule="evenodd" clip-rule="evenodd" d="M604.498 154.089c.381 5.06-2.933 10.534-10.182 16.655-19.013 16.06-33.766 35.11-38.662 50.421-12.939-7.123-10.876-83.654 14.166-80.223 11.245-2.927 33.964 3.74 34.678 13.147z" fill="#906C58"/>
    <path fill-rule="evenodd" clip-rule="evenodd" d="M597.195 153.19c.053 7.058-38.034 28.388-41.542 67.975-3.42-11.961-1.456-69.093 14.838-76.312 8.358-3.701 26.647.725 26.704 8.337z" fill="#4566BA"/>
    <path fill-rule="evenodd" clip-rule="evenodd" d="M596.738 151.495c.797 8.125-18.506 17.032-24.863 18.533-.453-3.049-3.104-8.102-3.599-10.093-3.562 1.664-4.08 2.495-8.157 4.992.134-5.864 1.525-17.454 10.372-20.074 8.961-2.654 25.503-.945 26.247 6.642z" fill="#5574C2"/>
    <path fill-rule="evenodd" clip-rule="evenodd" d="M592.505 132.73s-1.415 9.785 1.27 17.375c-3.455 6.372-20.531 9.478-25.317 9.399-2.211-1.245-2.49-4.894-2.486-11.485 6.288-3.306 6.704-3.646 1.472-17.023-.888-4.205 25.065 1.734 25.061 1.734z" fill="#D5855B"/>
    <path fill-rule="evenodd" clip-rule="evenodd" d="M552.374 119.775c.141 1.822 2.864 2.055-.431 9.536-2.029 4.621-1.075 4.67 1.544 12.505 1.484 4.439 5.015 13.845 21.976 5.59 0 0 16.374-11.045 20.71-20.041 4.335-9.002 3.195-17.669-6.22-24.288 1.758-.003-33.888-9.773-37.579 16.698z" fill="#F1A274"/>
    <path fill-rule="evenodd" clip-rule="evenodd" d="M477.483 392.808c2.066-1.174 8.076.091 12.11-.346 5.297-.573 15.055-4.265 11.761-2.872-1.682.711-11.261 4.047-13.122 4.19-4.301.333-10.94-.599-10.749-.972zM574.567 437.061c-2.135 2.211-14.006 2.799-17.491 1.742-1.96-.594.396-1.505 1.476-1.505 1.349 0 2.471.248 3.782.376 1.949.189 5.251.14 7.211-.188.805-.133 4.965-1.111 5.022-.425z" fill="#8A8D8D"/>
    <path fill-rule="evenodd" clip-rule="evenodd" d="M450.205 157.403c4.427-1.354 3.611-6.044 1.571-7.271-4.614-2.061-17.514-8.413-18.246-8.744-1.262-.576-.107-.16-1.361-.601-1.739-.61-2.7.689-1.945 3.13-1.838 2.545-.378 3.483 1.552 5.01-1.674 1.071-2.361 1.727 2.135 4.827-.545 1.503-2.166 1.561-1.315 2.347 2.921 2.065 9.388 5.659 13.338 4.83 3.291-.692 2.532-1.484 4.271-3.528z" fill="#D5855B"/>
    <path fill-rule="evenodd" clip-rule="evenodd" d="M630.729 236.376c.98 2.474-22.087 5.634-22.609-.629-4.229-14.773-7.02-8.981-9.762-39.094-9.278-21.824 2.357-28.902 11.009-29.42 33.488-1.997 21.358 69.143 21.362 69.143z" fill="#906C58"/>
    <path fill-rule="evenodd" clip-rule="evenodd" d="M593.328 281.488c-.45 1.94-4.046 2.975-6.09 3.931-2.31 1.09-1.559 4.482-5.106 5.574-3.405 1.045 2.166-8.322 2.998-9.6.667-1.026 3.927-4.058 5.769-3.554 3.207.874 2.353 2.067 2.429 3.649z" fill="#F3AA75"/>
    <path fill-rule="evenodd" clip-rule="evenodd" d="M600.593 275.774c-.817-1.843-7.745-4.408-8.569-1.758-1.289 2.153-6.17 10.489-6.368 11.125-.355 1.058-.488 1.751-.686 2.862-.279 1.536-.042 2.147.827 3.564.645 1.211 2.372 4.737 3.066 5.78 1.487 1.777 3.108 4.303 4.911 5.659.504-.175 1.354-.7 1.423-1.241.667.549 1.54 1.718 2.086 1.387 1.544-.947.797-2.529.797-2.529l.587.732c1.842-.789 1.838-2.064 1.651-2.92-.183-.839-1.472-3.431-1.701-4.282-.53-2.055-1.807-6.8-.061-2.039.717 2.076 2.345 4.875 3.23 3.91 1.529-1.67-.297-2.824-.766-4.961-.408-1.886-.645-6.096.122-8.082 1.647-4.274.572-4.666-.549-7.207z" fill="#F0A174"/>
    <path fill-rule="evenodd" clip-rule="evenodd" d="M608.024 275.832c-4.164-.206-11.885-4.493-14.604-8.265-.637 1.983-1.282 3.774-1.937 5.301-3.234 4.688 7.321 9.764 10.715 9.093 1.796-.823 3.493-3.363 5.826-6.129z" fill="#EAE7F0"/>
    <path fill-rule="evenodd" clip-rule="evenodd" d="M630.611 235.413c-2.963 12.716-14.62 36.727-21.057 43.278-4.084 3.243-18.803-1.074-18.75-8.455 4.977-11.534 7.943-35.378 15.757-43.591 7.634 1.169 26.734-2.86 24.05 8.768z" fill="#906C58"/>
    <path fill-rule="evenodd" clip-rule="evenodd" d="M553.616 109.963c.424 2.462 1.949 3.971 4.176 4.945 6.414-.379 8.309-1.369 16.37 1.154 5.77 1.804-.404 5.207 2.357 8.118 1.094 1.154 5.59 4.014 4.957 5.99l4.202-1.335c4.805-5.823 5.796 1.08 6.414 10.814 0 0 15.627-19.497 8.648-30.542-4.575-7.232-12.808-13.893-34.872-7.278-3.836 1.148-12.839 4.734-12.252 8.134z" fill="#28292A"/>
    <path fill-rule="evenodd" clip-rule="evenodd" d="M589.691 125.862c3.741.559 4.076 3.134 3.477 6.33-.598 3.197-3.885 7.6-6.047 6.015-2.612-1.916 2.154-3.759 1.266-6.358-.488-1.42-2.948-2.207-3.638-2.359-1.838-.412 1.201-4.186 4.942-3.628z" fill="#F0A174"/>
    <path fill-rule="evenodd" clip-rule="evenodd" d="M435.605 159.161l1.746-73.343c.053-3.024 3.985-3.146 4.012-.298l.396 74.209c.012 2.641-6.299 2.438-6.154-.568z" fill="#692E27"/>
    <path fill-rule="evenodd" clip-rule="evenodd" d="M441.18 159.334l-.45-74.51a1.72 1.72 0 00-1.11-.46l-.301 75.968c.728-.035 1.731-.288 1.861-.998z" fill="#B05931"/>
    <path fill-rule="evenodd" clip-rule="evenodd" d="M405.454 44.62l68.421 33.092c1.792.865 3.264 2.993 3.264 4.736v33.629c0 1.74-1.472 2.466-3.264 1.597l-68.421-33.092c-1.793-.865-3.265-2.993-3.265-4.736v-33.63c0-1.743 1.472-2.465 3.265-1.597z" fill="#A5A8A6"/>
    <path fill-rule="evenodd" clip-rule="evenodd" d="M404.469 45.205l68.425 33.092c1.792.869 3.264 2.997 3.264 4.737v33.629c0 1.743-1.475 2.465-3.264 1.6l-68.425-33.092c-1.788-.869-3.264-2.997-3.264-4.736V46.802c0-1.74 1.472-2.462 3.264-1.597z" fill="#DFDFDD"/>
    <path d="M427.315 90.038l-5.469-2.981V61l5.378 2.93.091.051v3.136l-.412-.255-1.273-.694v7.436l1.397.76.288.14v2.997l-.091-.052-1.594-.87v9.462l1.343.73.342.164v3.103zm5.027-16.634c0 2.805-.73 4.127-2.174 3.981 1.769 1.587 2.653 4.119 2.653 7.591v.668c-.02 2.605-.456 4.254-1.31 4.943-.847.694-2.24.512-4.169-.537l-.027-.012v-3.103c.573.24.988.2 1.242-.12.298-.38.446-1.269.446-2.673v-2.101c0-1.32-.117-2.32-.365-3.006-.235-.649-.673-1.158-1.323-1.534v-2.997c.489.207.82.176.991-.097.201-.324.305-1.164.305-2.517v-1.568c-.01-1.01-.141-1.758-.399-2.238-.187-.36-.489-.685-.897-.967V63.98c1.808.998 3.091 2.144 3.855 3.451.77 1.322 1.162 3.048 1.172 5.174v.798zM437.4 95.099V69.013l4.309 2.062V97.16L437.4 95.1zM450.412 98.244l1.414.68.427.176v3.106l-6.15-2.942V73.176l6.15 2.945v3.1l-.575-.326-1.266-.604v19.953zm1.841.856c.572.2 1.011.182 1.304-.064.359-.303.538-1.087.538-2.353l-.015-12.888c0-1.35-.183-2.404-.538-3.148-.278-.57-.709-1.047-1.289-1.427v-3.1l.202.098c2.079.995 3.589 2.283 4.527 3.861.942 1.582 1.407 3.47 1.407 5.678l.015 11.776c0 2.63-.473 4.333-1.415 5.104-.945.774-2.505.638-4.678-.401l-.058-.03V99.1z" fill="#040606"/>
    <path fill-rule="evenodd" clip-rule="evenodd" d="M450.16 147.965c-1.385-1.412-5.656-4.506-7.414-5.623-2.265-1.436-3.973-1.81-6.246-3.246-1.239 1.573-.9 3.225 3.585 5.523 5.868 4.132 3.527 8.968 10.135 9.168 3.043.094 4.695-.965-.06-5.822z" fill="#F1A274"/>
    <path fill-rule="evenodd" clip-rule="evenodd" d="M432.463 144.291l8.488 3.822c2.578 1.163.656 3.54-2.029 2.535l-8.675-3.239c-2.684-1.005-.366-4.281 2.216-3.118zM433.365 148.808l7.154 3.222c2.173.977.553 2.981-1.708 2.135l-7.31-2.73c-2.262-.847-.309-3.61 1.864-2.627zM433.66 153.705l6.726 1.221c2.044.37 1.347 2.292-.728 2.043l-6.704-.792c-2.074-.249-1.342-2.842.706-2.472z" fill="#F1A274"/>
    <path fill-rule="evenodd" clip-rule="evenodd" d="M431.97 140.781l7.654 3.443c2.326 1.047.594 3.191-1.827 2.286l-7.821-2.92c-2.421-.905-.332-3.859 1.994-2.809z" fill="#F1A274"/>
    <path fill-rule="evenodd" clip-rule="evenodd" d="M595.005 433.096l-12.255-5.037 12.183-.923.072 5.96z" fill="#171717"/>
    <path fill-rule="evenodd" clip-rule="evenodd" d="M604.06 350.448c-9.64-20.059-16.493-1.993-23.265 8.23 1.239 15.811-.564 49.389-2.89 61.831 2.467 10.021 26.216 3.404 25.526-1.366 2.829-22.858 17.804-39.687.629-68.695z" fill="#311A13"/>
    <path fill-rule="evenodd" clip-rule="evenodd" d="M630.729 236.376c.98 2.474-22.087 5.634-22.609-.629-4.229-14.773-7.02-8.981-9.762-39.094-9.278-21.824 2.357-28.902 11.009-29.42 33.488-1.997 21.358 69.143 21.362 69.143z" fill="#906C58"/>
    <path fill-rule="evenodd" clip-rule="evenodd" d="M593.328 281.488c-.45 1.94-4.046 2.975-6.09 3.931-2.31 1.09-1.559 4.482-5.106 5.574-3.405 1.045 2.166-8.322 2.998-9.6.667-1.026 3.927-4.058 5.769-3.554 3.207.874 2.353 2.067 2.429 3.649z" fill="#F3AA75"/>
    <path fill-rule="evenodd" clip-rule="evenodd" d="M600.593 275.774c-.817-1.843-7.745-4.408-8.569-1.758-1.289 2.153-6.17 10.489-6.368 11.125-.355 1.058-.488 1.751-.686 2.862-.279 1.536-.042 2.147.827 3.564.645 1.211 2.372 4.737 3.066 5.78 1.487 1.777 3.108 4.303 4.911 5.659.504-.175 1.354-.7 1.423-1.241.667.549 1.54 1.718 2.086 1.387 1.544-.947.797-2.529.797-2.529l.587.732c1.842-.789 1.838-2.064 1.651-2.92-.183-.839-1.472-3.431-1.701-4.282-.53-2.055-1.807-6.8-.061-2.039.717 2.076 2.345 4.875 3.23 3.91 1.529-1.67-.297-2.824-.766-4.961-.408-1.886-.645-6.096.122-8.082 1.647-4.274.572-4.666-.549-7.207z" fill="#F0A174"/>
    <path fill-rule="evenodd" clip-rule="evenodd" d="M608.024 275.832c-4.164-.206-11.885-4.493-14.604-8.265-.637 1.983-1.282 3.774-1.937 5.301-3.234 4.688 7.321 9.764 10.715 9.093 1.796-.823 3.493-3.363 5.826-6.129z" fill="#EAE7F0"/>
    <path fill-rule="evenodd" clip-rule="evenodd" d="M630.611 235.413c-2.963 12.716-14.62 36.727-21.057 43.278-4.084 3.243-18.803-1.074-18.75-8.455 4.977-11.534 7.943-35.378 15.757-43.591 7.634 1.169 26.734-2.86 24.05 8.768z" fill="#906C58"/>
    <path fill-rule="evenodd" clip-rule="evenodd" d="M589.691 125.862c3.741.559 4.076 3.134 3.477 6.33-.598 3.197-3.885 7.6-6.047 6.015-2.612-1.916 2.154-3.759 1.266-6.358-.488-1.42-2.948-2.207-3.638-2.359-1.838-.412 1.201-4.186 4.942-3.628z" fill="#F0A174"/>
    <path fill-rule="evenodd" clip-rule="evenodd" d="M669.677 487.632l-1.392-.09-4.42-8.974.617-4.357s3.603 7.262 5.195 13.421z" fill="#141314"/>
    <path fill-rule="evenodd" clip-rule="evenodd" d="M628.309 397.591s18.294 15.306 23.784 42.141c.574 6.231 3.407 19.439 9.774 26.715 8.523 16.196-10.47 33.799-11.447 24.191-.064-.588-.107-1.173-.007-1.75.125-.743.492-2.207.695-3.187.967-5.317 1.367-7.611-.142-13.945-4.945-11.701-6.175-12.727-13.385-25.32 0 0-2.298-3.217-5.398-7.995-3.474-4.795-6.824-9.452-9.603-14.348-3.574-6.297-4.074-15.24-9.768-23.133l15.497-3.369z" fill="#F1A274"/>
    <path fill-rule="evenodd" clip-rule="evenodd" d="M660.385 464.597c2.315 2.107 6.5 4.139 6.104 9.303 0 0 2.647 10.991 3.792 13.02l-.803.778s-3.87-10.516-4.384-10.743c0 0-1.901 4.749-.728 11.224 1.912 5.9-10.884 11.228-17.077 11.283-3.781.023 1.68-4.208 3.932-13.672-1.099 8.588 3.449 5.427 7.12 2.51 6.468-5.135 6.378-19.418 2.044-23.703z" fill="#311A13"/>
    <path fill-rule="evenodd" clip-rule="evenodd" d="M611.319 492.675l-1.281-.449-.596-9.646 2.33-3.963s.503 7.813-.453 14.058z" fill="#141314"/>
    <path fill-rule="evenodd" clip-rule="evenodd" d="M608.171 396.666s11.191 19.259 5.658 46.087c-1.948 6.049-4.548 19.288-1.43 27.835 1.587 17.551-23.424 29.254-20.506 19.905.175-.57.368-1.138.689-1.657.417-.671 1.352-1.959 1.937-2.832 3.039-4.781 4.334-6.848 5.44-13.237 0-12.363-.76-13.654-2.543-27.455 0 0-.889-3.643-1.913-8.974-3.135-12.444-5.932-24.035-1.608-37.669l14.276-2.003z" fill="#D5855B"/>
    <path fill-rule="evenodd" clip-rule="evenodd" d="M611.731 468.45c1.352 2.597 4.499 5.614 2.058 10.398 0 0-1.89 11.089-1.619 13.311l-1.067.528s.543-10.966.147-11.312c0 0-3.7 3.998-5.177 10.433-.549 6.081-14.79 7.784-20.676 6.219-3.585-.963 3.275-3.542 9.189-11.911-4.473 7.842 1.095 6.035 5.737 4.234 8.173-3.173 13.798-16.715 11.408-21.9z" fill="#311A13"/>
    <path fill-rule="evenodd" clip-rule="evenodd" d="M596.92 310.002s24.861 11.554 45.492.038c0 0 20.633 15.643 11.886 39.052-4.759 12.732-19.093 30.482-13.809 51.695-9.097 5.144-21.383 9.703-49.248-3.68 0-4.689-3.446-64.277 5.679-87.105z" fill="#682425"/>
    <path fill-rule="evenodd" clip-rule="evenodd" d="M599.809 313.193c-.356 11.046 11.841 18.086 9.939 24.069-4.049 12.758-4.013 26.075-4.013 39.787 0 9.62 4.641 19.312 5.372 27.424-5.597-1.32-12.129-3.651-19.866-7.366 0-4.686-8.077-73.269 5.679-87.107 0 0 .103 2.256 2.889 3.193z" fill="#682425"/>
    <path fill-rule="evenodd" clip-rule="evenodd" d="M584.98 265.654c-16.817 1.746-23.973 2.034-28.568 1.939-4.769-.859-11.027-11.187-5.611-11.605 13.941-1.657 36.729-9.006 47.25-10.095 12.903-3.412 9.096 5.807 11.672 10.265.767 4.798-7.902 7.741-24.743 9.496z" fill="#C38F84"/>
    <path fill-rule="evenodd" clip-rule="evenodd" d="M593.089 282.919c2.526 2.844 4.445 15.464 4.677 21.876-.26 3.043-.763 3.7-1.281 6.937 1.609 4.743 34.886 16.942 49.958 1.253 0 0-8.03-7.02-2.116-19.648 5.409-9.617 14.452-26.015 10.103-36.11-5.629-7.236-26.256-19.677-55.74-11.582-5.009 1.377 1.88 10.138-1.873 15.914-6.236 9.596-11.412 12.711-3.728 21.36z" fill="#CD9F94"/>
    <path fill-rule="evenodd" clip-rule="evenodd" d="M593.089 282.919c4.976 6.081 5.865 21.45 2.54 28.631 0 0 1.787 2.205 4.206 3.089-3.393-24.703 4.013-24.204 19.692-22.827 15.511.418 17.605-8.207 15.557-7.331-4.741 4.086-15.033 5.631-19.306 3.199-16.592-10.738-20.145-.219-26.51-13.078-.503 4.236 2.369 6.547 3.821 8.317z" fill="#C38F84"/>
    <path fill-rule="evenodd" clip-rule="evenodd" d="M556.412 267.593c-17.773-2.732-33.776-20.986-37.197-25.452-1.612-.957 4.987-5.9 8.301-3.283 5.405 4.242 9.975 8.193 23.72 13.222 9.717 3.366 14.237 13.761 5.176 15.513z" fill="#CD9F94"/>
    <path fill-rule="evenodd" clip-rule="evenodd" d="M645.54 327.259c2.048.072 5.351-2.637 3.022-3.983-3.493-3.072-5.53-7.541-10.067-9.634-1.406-.66-2.073-.706-3.718-.605-1.38.02-5.34-.009-6.574.098-2.187.366-5.144.588-7.028 1.291.018.366.26 1.064.767 1.277-.742.248-2.148.426-1.998.867.446 1.265 2.216 1.294 2.216 1.294l-.896.139c.196 1.4 1.438 1.798 2.33 1.953.87.147 3.795.159 4.687.286 2.166.311 7.174 1.008 2.005.599-2.24-.202-5.469-.066-4.805.79 1.148 1.484 2.832.703 5.058 1.083 1.962.338 6.129 1.516 7.824 2.62 3.645 2.38 4.355 1.827 7.177 1.925z" fill="#F1A274"/>
    <path fill-rule="evenodd" clip-rule="evenodd" d="M680.218 307.642c-7.695 9.992-27.904 14.568-32.652 18.793-1.338 1.202-6.771-4.594-3.218-7 5.765-3.922 11.084-7.202 18.643-17.752 1.649-2.306 7.164-10.683 11.652-8.349 4.477 2.349 16.417-.499 5.575 14.308z" fill="#DAB4AA"/>
    <path fill-rule="evenodd" clip-rule="evenodd" d="M667.926 269.406c7.916 10.392 16.039 21.524 16.706 28.838.424 6.073-6.735 2.17-13.742 1.072-6.97-9.89-19.57-19.582-26.298-26.98-5.391-7.423-3.09-15.985 2.172-18.294 5.255-2.317 12.265 3.681 21.162 15.364z" fill="#DAB4AA"/>
    <path fill-rule="evenodd" clip-rule="evenodd" d="M606.979 276.541c-5.119-25.043-7.902-19.982-3.082-31.902 10.481-2.3 22.485-.712 30.583 1.804 9.996 9.721-8.38 16.309-27.501 30.098z" fill="#fff"/>
    <path fill-rule="evenodd" clip-rule="evenodd" d="M607.705 274.778c-3.436-15.58 1.698-23.364 2.425-30.848 5.626-.818 15.008-.153 20.441 1.412 3.86 5.629-10.035 20.856-22.866 29.436z" fill="#F0A174"/>
    <path fill-rule="evenodd" clip-rule="evenodd" d="M613.991 204.368c1.327.294 6.803 15.977 6.443 29.767-.357 13.729-19.275 9.147-24.109 8.397 8.715-25.23 4.427-27.789 4.427-27.789l13.239-10.375z" fill="#1C100E"/>
    <path fill-rule="evenodd" clip-rule="evenodd" d="M602.892 215.083c-.3 8.449-4.317 21.152 6.814 28.389 3.349 2.176 18.871-2.248 21.136-8.801 0 0 1.959-11.81-.117-17.485-2.077-5.68-5.319-9.732-10.517-11.573-5.219-1.839-15.579-3.124-17.316 9.47z" fill="#F0A174"/>
    <path fill-rule="evenodd" clip-rule="evenodd" d="M611.393 243.708c.046.274-.157-.513-.596 3.193.585 2.453 2.183 3.908 4.174 4.568 12.389 4.104 16.92-4.608 14.836-14.922-2.154 2.729-8.337 6.939-18.414 7.161z" fill="#D5855B"/>
    <path fill-rule="evenodd" clip-rule="evenodd" d="M632.683 201.766c9.956 5.354 13.21 17.158 12.839 31.403-.36 13.73-22.835 13.597-22.835 13.597 3.632-6.066 7.47-22.594-6.675-24.989-7.213-1.028-15.828-2.772-16.595-6.38-.007-10.277 23.409-18.931 33.266-13.631z" fill="#311A13"/>
    <path fill-rule="evenodd" clip-rule="evenodd" d="M523.685 240.259c4.074-.364 4.687-4.488 3.321-5.891-3.289-2.568-12.325-10.242-12.843-10.651-.895-.715-.046-.159-.97-.753-1.284-.827-2.447.107-2.49 2.309-2.237 1.833-1.277 2.888-.086 4.524-1.694.611-2.447 1.049.457 4.473-.874 1.179-2.244.94-1.751 1.761 1.876 2.268 6.289 6.464 9.821 6.461 2.943-.003 2.525-.81 4.541-2.233z" fill="#D5855B"/>
    <path fill-rule="evenodd" clip-rule="evenodd" d="M516.248 249.979l1.634-69.62c.05-2.87 3.728-2.985 3.753-.282l.371 70.441c.01 2.507-5.894 2.314-5.758-.539z" fill="#692E27"/>
    <path fill-rule="evenodd" clip-rule="evenodd" d="M521.463 250.143l-.421-70.726a1.593 1.593 0 00-1.038-.438l-.278 72.112c.677-.034 1.616-.273 1.737-.948z" fill="#B05931"/>
    <path fill-rule="evenodd" clip-rule="evenodd" d="M488.039 141.252l64.009 31.413c1.677.821 3.054 2.844 3.054 4.495v31.923c0 1.651-1.377 2.34-3.054 1.516l-64.009-31.413c-1.677-.821-3.054-2.841-3.054-4.496v-31.922c0-1.654 1.377-2.34 3.054-1.516z" fill="#A5A8A6"/>
    <path fill-rule="evenodd" clip-rule="evenodd" d="M487.123 141.808l64.01 31.413c1.676.824 3.053 2.844 3.053 4.495v31.923c0 1.654-1.38 2.34-3.053 1.519l-64.01-31.413c-1.676-.824-3.057-2.844-3.057-4.495v-31.926c0-1.651 1.377-2.337 3.057-1.516z" fill="#DFDFDD"/>
    <path d="M508.771 184.722l-5.83-2.833v-24.761l5.73 2.784.1.049v2.983l-.443-.245-1.355-.66v7.066l1.487.724.311.135v2.845l-.1-.049-1.698-.827v8.991l1.434.694.364.162v2.942zm5.351-15.807c0 2.666-.778 3.922-2.316 3.784 1.884 1.507 2.826 3.914 2.826 7.213v.634c-.022 2.476-.485 4.044-1.395 4.698-.903.66-2.387.487-4.441-.51l-.025-.012v-2.942c.606.225 1.048.184 1.319-.121.318-.36.475-1.205.475-2.539v-1.997c0-1.254-.125-2.205-.389-2.856-.25-.617-.717-1.101-1.405-1.458v-2.845c.52.199.87.164 1.052-.095.214-.308.324-1.106.324-2.392v-1.49c-.01-.959-.149-1.671-.42-2.127-.204-.342-.525-.648-.956-.916v-2.983c1.922.948 3.289 2.038 4.102 3.28.821 1.256 1.238 2.896 1.249 4.916v.758zM517.928 189.169v-24.761l4.031 1.957v24.761l-4.031-1.957zM530.099 192.155l1.327.645.396.17v2.948l-5.754-2.795v-24.761l5.754 2.793v2.945l-.535-.309-1.188-.576v18.94zm1.723.815c.539.19.945.17 1.22-.063.335-.288.503-1.032.503-2.234l-.014-12.233c0-1.283-.171-2.283-.503-2.989a3.342 3.342 0 00-1.206-1.351v-2.945l.189.092c1.944.945 3.357 2.167 4.238 3.665.878 1.502 1.313 3.294 1.313 5.39l.014 11.178c0 2.496-.439 4.113-1.323 4.845-.885.735-2.344.605-4.377-.381l-.054-.026v-2.948z" fill="#040606"/>
    <path fill-rule="evenodd" clip-rule="evenodd" d="M526.25 232.244c-.767-1.443-3.485-4.827-4.645-6.083-1.498-1.623-2.822-2.24-4.324-3.862-1.473 1.112-1.644 2.573 1.47 5.32 3.767 4.547.475 8.23 5.943 9.573 2.519.62 4.192.015 1.556-4.948z" fill="#F1A274"/>
    <path fill-rule="evenodd" clip-rule="evenodd" d="M512.47 225.988l6.039 4.749c1.837 1.441-.424 3.118-2.394 1.79l-6.353-4.289c-1.969-1.325.87-3.694 2.708-2.25zM511.981 229.979l5.09 4c1.548 1.216-.36 2.628-2.015 1.51l-5.355-3.614c-1.659-1.118.731-3.115 2.28-1.896zM510.874 234.187l5.287 2.224c1.606.678.493 2.185-1.173 1.608l-5.383-1.864c-1.67-.577-.339-2.649 1.269-1.968z" fill="#F1A274"/>
    <path fill-rule="evenodd" clip-rule="evenodd" d="M513.028 222.924l5.448 4.28c1.655 1.3-.385 2.81-2.158 1.614l-5.733-3.865c-1.773-1.199.788-3.334 2.443-2.029z" fill="#F1A274"/>
</svg>