<svg viewBox="0 0 655 497" fill="none" xmlns="http://www.w3.org/2000/svg">
<path d="M0 437.094H655V436.76H0V437.094Z" fill="#E9E9E8"/>
<path d="M163.523 457.273H120.133V456.94H163.523V457.273Z" fill="#E9E9E8"/>
<path d="M106.402 457.273H81.2588V456.94H106.402V457.273Z" fill="#E9E9E8"/>
<path d="M275.827 462.182H250.685V461.848H275.827V462.182Z" fill="#E9E9E8"/>
<path d="M406.908 469.628H350.325V469.295H406.908V469.628Z" fill="#E9E9E8"/>
<path d="M338.662 469.628H330.366V469.295H338.662V469.628Z" fill="#E9E9E8"/>
<path d="M593.88 462.182H471.164V461.848H593.88V462.182Z" fill="#E9E9E8"/>
<path d="M57.5285 0.334755C53.5853 0.334755 50.3783 3.60004 50.3783 7.61353V369.659C50.3783 373.673 53.5853 376.939 57.5285 376.939H310.488C314.428 376.939 317.637 373.673 317.637 369.659V7.61353C317.637 3.60004 314.428 0.334755 310.488 0.334755H57.5285ZM310.488 377.272H57.5285C53.4052 377.272 50.0508 373.858 50.0508 369.659V7.61353C50.0508 3.4173 53.4052 0.00128937 57.5285 0.00128937H310.488C314.609 0.00128937 317.964 3.4173 317.964 7.61353V369.659C317.964 373.858 314.609 377.272 310.488 377.272Z" fill="#E9E9E8"/>
<path d="M340.878 0.334755C336.936 0.334755 333.729 3.60004 333.729 7.61353V369.659C333.729 373.673 336.936 376.939 340.878 376.939H593.837C597.779 376.939 600.987 373.673 600.987 369.659V7.61353C600.987 3.60004 597.779 0.334755 593.837 0.334755H340.878ZM593.837 377.272H340.878C336.755 377.272 333.401 373.858 333.401 369.659V7.61353C333.401 3.4173 336.755 0.00128937 340.878 0.00128937H593.837C597.96 0.00128937 601.315 3.4173 601.315 7.61353V369.659C601.315 373.858 597.96 377.272 593.837 377.272Z" fill="#E9E9E8"/>
<path d="M321.487 439.178H350.292V322.823H321.487V439.178Z" fill="#E3E3E2"/>
<path d="M344.822 439.178H350.293V423.332H339.086L344.822 439.178Z" fill="#FCFDFD"/>
<path d="M195.262 439.178H224.067V322.823H195.262V439.178Z" fill="#E3E3E2"/>
<path d="M219.293 429.455H350.293V322.823H219.293V429.455Z" fill="#FCFDFD"/>
<path d="M346.048 327.548H223.537V356.791H346.048V327.548ZM345.543 328.065V356.275H224.043V328.065H345.543Z" fill="#E3E3E2"/>
<path d="M224.764 439.178H219.293V423.332H230.5L224.764 439.178Z" fill="#FCFDFD"/>
<path d="M281.895 342.17C281.895 343.798 283.193 345.12 284.792 345.12C286.393 345.12 287.69 343.798 287.69 342.17C287.69 340.54 286.393 339.219 284.792 339.219C283.193 339.219 281.895 340.54 281.895 342.17Z" fill="#E9E9E8"/>
<path d="M346.048 361.517H223.537V390.758H346.048V361.517ZM345.543 362.032V390.245H224.043V362.032H345.543Z" fill="#E3E3E2"/>
<path d="M281.896 376.138C281.896 377.767 283.193 379.089 284.793 379.089C286.394 379.089 287.691 377.767 287.691 376.138C287.691 374.509 286.394 373.19 284.793 373.19C283.193 373.19 281.896 374.509 281.896 376.138Z" fill="#E9E9E8"/>
<path d="M346.048 395.487H223.537V424.729H346.048V395.487ZM345.543 396.001V424.214H224.043V396.001H345.543Z" fill="#E3E3E2"/>
<path d="M281.896 410.108C281.896 411.736 283.193 413.056 284.793 413.056C286.394 413.056 287.691 411.736 287.691 410.108C287.691 408.479 286.394 407.157 284.793 407.157C283.193 407.157 281.896 408.479 281.896 410.108Z" fill="#E9E9E8"/>
<path d="M177.663 439.178H206.469V255.248H177.663V439.178Z" fill="#E3E3E2"/>
<path d="M200.998 439.178H206.469V423.332H195.262L200.998 439.178Z" fill="#FCFDFD"/>
<path d="M98.8105 439.178H70.0049V255.248H98.8105V439.178Z" fill="#E3E3E2"/>
<path d="M94.0352 429.455H206.469V255.248H94.0352V429.455Z" fill="#FCFDFD"/>
<path d="M202.224 259.573H98.2793V300.23H202.224V259.573ZM201.628 260.182V299.622H98.8764V260.182H201.628Z" fill="#E3E3E2"/>
<path d="M202.224 303.809H152.088V409.646H202.224V303.809ZM201.628 304.417V409.038H152.685V304.417H201.628Z" fill="#E3E3E2"/>
<path d="M148.416 303.809H98.2793V409.646H148.416V303.809ZM147.819 304.417V409.038H98.8764V304.417H147.819Z" fill="#E3E3E2"/>
<path d="M99.506 439.178H94.0352V423.332H105.243L99.506 439.178Z" fill="#FCFDFD"/>
<path d="M147.355 279.901C147.355 281.531 148.652 282.852 150.252 282.852C151.853 282.852 153.15 281.531 153.15 279.901C153.15 278.274 151.853 276.952 150.252 276.952C148.652 276.952 147.355 278.274 147.355 279.901Z" fill="#E9E9E8"/>
<path d="M157.728 354.232C157.728 355.86 159.026 357.182 160.625 357.182C162.225 357.182 163.523 355.86 163.523 354.232C163.523 352.602 162.225 351.281 160.625 351.281C159.026 351.281 157.728 352.602 157.728 354.232Z" fill="#E9E9E8"/>
<path d="M136.981 354.232C136.981 355.86 138.28 357.182 139.879 357.182C141.48 357.182 142.777 355.86 142.777 354.232C142.777 352.602 141.48 351.281 139.879 351.281C138.28 351.281 136.981 352.602 136.981 354.232Z" fill="#E9E9E8"/>
<path d="M133.718 203.966H121.566C121.566 203.966 123.675 215.404 123.675 222.134C123.675 228.865 114.433 255.248 127.642 255.248C140.851 255.248 131.608 228.865 131.608 222.134C131.608 215.404 133.718 203.966 133.718 203.966Z" fill="#E3E3E2"/>
<path d="M87.5117 231.016V239.055C87.5117 247.961 94.6692 255.248 103.416 255.248H111.311C120.059 255.248 127.215 247.961 127.215 239.055V231.016H87.5117Z" fill="#F8F8F9"/>
<path d="M256.324 305.866C256.324 315.192 266.582 322.823 279.121 322.823H290.438C302.977 322.823 313.236 315.192 313.236 305.866H256.324Z" fill="#E3E3E2"/>
<path d="M556.234 292.214C549.37 297.919 539.897 308.365 531.214 323.063C525.433 332.849 521.949 343.105 520.417 356.655C520.45 341.318 520.497 324.838 520.55 309.284C522.293 305.283 526.276 296.059 529.133 288.771C538.664 264.453 542.216 258.473 550.79 237.499C562.225 209.524 573.943 176.328 570.589 178.981C563.751 184.385 537.551 234.34 534.719 241.491C524.976 266.087 522.263 284.013 520.577 301.316C520.631 286.709 520.687 273.295 520.741 262.945C520.915 229.189 521.48 218.294 521.755 214.934C522.816 213.227 524.068 211.237 524.795 210.164C530.951 201.104 533.325 193.385 539.123 179.87C547.34 160.72 554.418 126.721 552.349 128.436C543.734 135.576 536.939 150.926 528.011 170.487C519.083 190.047 521.634 201.297 519.865 218.002C519.493 221.282 519.208 233.652 519.003 250.798C516.687 232.531 512.343 220.493 504.417 209.555C494.667 196.1 485.237 187.012 478.317 182.264C471.397 177.519 490.265 210.568 499.29 224.994C507.325 237.84 514.727 249.176 518.899 260.34C518.68 283.579 518.577 313.006 518.576 340.397C516.506 327.931 513.126 314.509 508.617 304.114C503.199 291.624 494.863 272.47 488.228 265.973C486.635 264.411 495.166 301.667 500.642 311.573C506.117 321.479 510.136 330.815 513.583 336.43C514.386 337.742 517.053 342.793 518.577 345.698C518.593 379.139 518.759 408.644 519.046 418.688H520.465C520.368 416.098 520.352 399.087 520.381 376.574C523.799 364.349 531.613 350.4 538.06 337.672C545.099 323.783 563.1 286.508 556.234 292.214Z" fill="#E3E3E2"/>
<path d="M540.297 439.178H499.237L496.138 398.199H543.397L540.297 439.178Z" fill="#F4F4F4"/>
<path d="M546.456 402.974H493.079L491.55 389.147H547.986L546.456 402.974Z" fill="#F8F8F9"/>
<path d="M162.779 109.501H89.3516V27.405H162.779V109.501Z" fill="#E3E3E2"/>
<path d="M170.734 109.501H94.8877V27.405H170.734V109.501Z" fill="#F8F8F9"/>
<path d="M101.241 103.032V33.8741H164.379V103.032H101.241Z" fill="white"/>
<path d="M116.544 86.2684V50.6377H149.075V86.2684H116.544Z" fill="#F8F8F9"/>
<path d="M537.167 113.239H468.954V36.9753H537.167V113.239Z" fill="#E3E3E2"/>
<path d="M544.554 113.239H474.097V36.9753H544.554V113.239Z" fill="#F8F8F9"/>
<path d="M480 107.23V42.9842H538.653V107.23H480Z" fill="white"/>
<path d="M527.625 75.1069C527.625 85.3961 519.432 93.7379 509.325 93.7379C499.22 93.7379 491.027 85.3961 491.027 75.1069C491.027 64.8177 499.22 56.4759 509.325 56.4759C519.432 56.4759 527.625 64.8177 527.625 75.1069Z" fill="#F8F8F9"/>
<path d="M239.062 137.256H184.591V76.3554H239.062V137.256Z" fill="#E3E3E2"/>
<path d="M244.962 137.256H188.697V76.3554H244.962V137.256Z" fill="#F8F8F9"/>
<path d="M193.411 132.458V81.1545H240.249V132.458H193.411Z" fill="white"/>
<path d="M216.83 93.8366L204.021 116.428H229.639L216.83 93.8366Z" fill="#F8F8F9"/>
<path d="M581.495 481.897C581.495 490.239 467.777 497 327.5 497C187.223 497 73.5059 490.239 73.5059 481.897C73.5059 473.555 187.223 466.793 327.5 466.793C467.777 466.793 581.495 473.555 581.495 481.897Z" fill="#F8F8F9"/>
<path d="M457.511 144.694L444.518 139.33C444.518 139.33 427.371 171.172 422.458 172.78C415.776 174.966 401.954 181.048 393.74 182.187C392.633 183.505 390.807 187.661 390.981 189.176C402.001 192.918 426.21 187.949 431.392 184.03C443.204 175.096 457.511 144.694 457.511 144.694Z" fill="#F47372"/>
<path d="M461.513 137.47C463.93 146.591 450.805 164.915 450.805 164.915L433.562 155.068C433.562 155.068 436.777 147.535 440.712 139.865C447.066 127.476 458.753 127.058 461.513 137.47Z" fill="#4870C0"/>
<path d="M443.399 160.686L433.562 155.068C433.562 155.068 436.777 147.535 440.712 139.865C443.308 134.804 446.794 131.741 450.197 130.597C450.181 130.632 448.138 135.279 446.118 144.287C443.382 148.406 441.421 155.069 440.437 158.988L443.399 160.679C443.399 160.682 443.399 160.684 443.399 160.686ZM450.2 130.596C450.683 130.434 451.164 130.31 451.642 130.226C450.761 130.442 450.243 130.585 450.2 130.596Z" fill="#395EB4"/>
<path d="M443.399 160.679L440.438 158.988C441.421 155.069 443.382 148.406 446.118 144.288C445.125 148.711 444.138 154.182 443.399 160.679Z" fill="#244CA5"/>
<path d="M450.198 130.597C450.198 130.597 436.809 160.923 444.614 217.399C460.51 217.399 489.635 217.399 497.369 217.399C498.208 209.153 495.435 168.93 505.482 130.08C505.482 130.08 496.547 128.232 487.953 127.809C481.232 127.479 471.486 127.26 465.529 127.811C457.674 128.536 450.198 130.597 450.198 130.597Z" fill="#4870C0"/>
<path d="M497.369 217.399C489.635 217.399 460.51 217.399 444.614 217.399C444.245 214.721 443.921 212.098 443.643 209.537L482.87 196.572C488.994 194.708 494.326 190.788 497.96 185.428C498.061 183.002 498.186 180.493 498.35 177.907C497.141 197.399 497.85 212.667 497.369 217.399ZM442.942 202.121C442.403 195.36 442.171 189.056 442.171 183.218C442.168 148.784 450.197 130.597 450.197 130.597C450.197 130.597 457.673 128.536 465.528 127.811C468.155 127.568 471.516 127.475 475.031 127.475C479.489 127.475 484.194 127.625 487.953 127.809C495.616 128.187 503.551 129.697 505.179 130.019C504.658 129.923 504.13 129.875 503.597 129.875C499.43 129.875 495.049 132.827 492.176 139.167C486.962 150.678 484.221 159.27 484.221 159.27L487.703 160.718C484.308 167.86 480.813 174.273 478.835 175.19C472.414 178.166 456.15 188.459 449.24 193.421C449.027 194.34 449.025 196.107 449.213 197.705L442.941 202.123" fill="#395EB4"/>
<path d="M482.637 485.694C457.882 485.694 437.881 484.534 437.963 483.102C438.046 481.67 458.18 480.508 482.935 480.508C507.69 480.508 527.692 481.67 527.609 483.102C527.525 484.534 507.392 485.694 482.637 485.694Z" fill="#E2E7EC"/>
<path d="M482.5 468.37L473.113 472.055L465.047 450.785L474.434 447.103L482.5 468.37Z" fill="#F47372"/>
<path d="M514.897 472.847H505.034L501.416 449.592H511.279L514.897 472.847Z" fill="#F47372"/>
<path d="M504.4 471.684H515.481C515.885 471.684 516.218 471.969 516.281 472.371L517.715 481.297C517.864 482.224 517.099 483.099 516.168 483.083C512.303 483.016 510.438 482.785 505.566 482.785C502.568 482.785 496.373 483.102 492.233 483.102C488.184 483.102 487.792 478.933 489.509 478.556C497.206 476.863 500.203 474.529 502.764 472.301C503.226 471.901 503.811 471.684 504.4 471.684Z" fill="#1D2A30"/>
<path d="M471.565 468.169L482.072 465.059C482.465 464.943 482.87 465.116 483.044 465.474L486.938 473.471C487.342 474.299 486.864 475.341 485.953 475.595C482.147 476.651 479.589 477.314 474.824 478.724C471.532 479.698 468.184 481.286 464.931 482.341C462.678 483.072 457.389 483.102 454.651 483.102C450.602 483.102 449.7 478.755 451.434 478.556C455.826 478.054 456.416 478.288 458.841 477.048C462.848 475.001 465.95 473.305 469.42 469.604C470.027 468.959 470.734 468.413 471.565 468.169Z" fill="#1D2A30"/>
<path d="M395.402 182.092L384.548 177.443L380.081 189.685C380.081 189.685 386.344 190.841 393.497 189.685L395.402 182.092Z" fill="#F47372"/>
<path d="M376.482 177.143L376.195 185.287L380.081 189.685L384.548 177.443L376.482 177.143Z" fill="#F47372"/>
<path d="M465.052 450.791L469.208 461.755L478.6 458.069L474.443 447.107L465.052 450.791Z" fill="#EB5559"/>
<path d="M511.282 449.598H501.416L503.285 461.585H513.152L511.282 449.598Z" fill="#EB5559"/>
<path d="M443.641 209.539C443.359 207.003 443.131 204.536 442.941 202.123C443.135 204.536 443.368 207.007 443.644 209.537L443.641 209.539ZM498.35 177.907C498.493 175.614 498.661 173.262 498.861 170.863C498.863 170.86 498.864 170.859 498.865 170.856C498.771 171.989 498.684 173.109 498.606 174.216C498.512 175.463 498.426 176.693 498.35 177.907Z" fill="#CECDCC"/>
<path d="M443.643 209.537C443.368 207.007 443.135 204.535 442.942 202.121L449.213 197.705C449.364 198.992 449.639 200.17 450.027 200.707C461.779 198.532 484.388 189.682 489.103 185.184C492.471 181.971 495.832 176.653 498.861 170.863C498.661 173.262 498.493 175.614 498.35 177.907C498.186 180.493 498.061 183.002 497.96 185.428C494.326 190.788 488.994 194.708 482.87 196.572L443.643 209.537Z" fill="#244CA5"/>
<path d="M455.748 158.374L454.413 158.213C455.193 151.557 460.071 146.296 465.227 146.42L465.187 147.792C460.736 147.662 456.449 152.405 455.748 158.374Z" fill="white"/>
<path d="M462.729 170.691L462.509 170.688L462.547 169.317C467.052 169.485 471.284 164.705 471.985 158.736L473.32 158.897C472.554 165.458 467.827 170.691 462.729 170.691Z" fill="white"/>
<path d="M487.213 102.1C485.375 109.446 483.188 122.908 487.953 127.809C487.953 127.809 484.624 135.261 471.217 135.261C458.965 135.261 465.528 127.811 465.528 127.811C473.688 125.854 473.83 119.776 472.757 114.067L487.213 102.1Z" fill="#F47372"/>
<path d="M481.319 106.982L472.764 114.062C473.022 115.411 473.205 116.781 473.221 118.114C475.722 120.649 480.743 114.226 481.256 110.948C481.513 109.314 481.537 107.743 481.319 106.982Z" fill="#EB5559"/>
<path d="M458.06 102.009C459.313 104.295 461.526 105.717 463.617 106.192C466.763 106.904 468.343 103.958 467.476 100.994C466.695 98.3249 464.118 94.7382 460.957 95.3531C457.843 95.9587 456.625 99.3933 458.06 102.009Z" fill="#EB5559"/>
<path d="M463.25 78.4948C458.351 80.7797 456.624 100.598 462.785 103.527C468.944 106.457 472.532 74.1652 463.25 78.4948Z" fill="#1D2A30"/>
<path d="M488.707 91.0436C487.535 100.991 487.344 106.845 482.114 111.95C474.249 119.63 462.452 115.075 460.693 105.146C459.109 96.2068 461.293 81.4413 471.084 77.4811C480.731 73.581 489.88 81.0945 488.707 91.0436Z" fill="#F47372"/>
<path d="M472.612 83.6501C479.861 81.7614 485.194 80.4769 483.29 86.6352C480.754 94.841 477.713 102.791 481.793 103.161C484.274 103.386 495.279 98.6317 493.883 93.8233C492.665 89.6364 497.78 88.5066 498.723 86.3698C502.121 78.6789 492.414 79.6793 494.142 75.0242C495.824 70.4932 486.323 62.8356 481.059 66.577C472.536 72.634 457.891 72.5473 465.591 62.6129C471.105 55.4969 461.265 56.9587 461.265 56.9587C461.265 56.9587 467.209 60.5468 457.207 66.0955C446.604 71.979 456.309 87.8957 472.612 83.6501Z" fill="#1D2A30"/>
<path d="M492.488 102.009C490.971 104.295 488.596 105.717 486.449 106.192C483.223 106.904 481.981 103.958 483.19 100.994C484.277 98.3249 487.268 94.7382 490.357 95.3531C493.401 95.9587 494.225 99.3933 492.488 102.009Z" fill="#F47372"/>
<path d="M444.614 217.399C444.614 217.399 435.761 298.092 435.069 328.717C434.35 360.571 465.079 459.958 465.079 459.958L480.813 453.23C480.813 453.23 462.493 362.432 465.037 331.148C467.811 297.044 479.292 217.399 479.292 217.399H444.614Z" fill="#4870C0"/>
<path d="M468.142 301.428C464.521 284.876 460.067 257.553 465.599 242.04C466.813 254.832 468.391 270.903 470.024 285.999C469.368 291.225 468.733 296.414 468.142 301.428Z" fill="#395EB4"/>
<path d="M480.102 448L481.967 453.106L463.832 460.86L460.975 455.449L480.102 448Z" fill="#4870C0"/>
<path d="M463.328 217.399C463.328 217.399 470.102 294.145 474.592 322.899C479.508 354.384 498.82 459.264 498.82 459.264H516.885C516.885 459.264 506.062 356.925 504.017 325.752C501.798 291.918 497.368 217.399 497.368 217.399H463.328Z" fill="#4870C0"/>
<path d="M517.161 454.47L517.765 459.611H497.91L496.492 453.709L517.161 454.47Z" fill="#4870C0"/>
<path d="M510.241 448.395L510.074 448.243C509.976 447.313 500.215 354.919 498.377 326.911C496.385 296.517 492.378 229.125 492.337 228.448L492.494 228.266H492.506L492.674 228.427C492.713 229.105 496.72 296.497 498.714 326.888C500.551 354.889 510.31 447.277 510.408 448.207L510.26 448.394L510.241 448.395Z" fill="#395EB4"/>
<path d="M473.727 93.8232C473.681 94.6342 473.22 95.2905 472.701 95.2905C472.181 95.2905 471.798 94.6342 471.845 93.8232C471.891 93.0136 472.35 92.3574 472.87 92.3574C473.39 92.3574 473.774 93.0136 473.727 93.8232Z" fill="#1D2A30"/>
<path d="M464.735 93.8232C464.689 94.6342 464.229 95.2905 463.709 95.2905C463.189 95.2905 462.806 94.6342 462.851 93.8232C462.899 93.0136 463.358 92.3574 463.877 92.3574C464.398 92.3574 464.782 93.0136 464.735 93.8232Z" fill="#1D2A30"/>
<path d="M467.572 94.2274C467.572 94.2274 465.493 98.8998 463.372 101.154C464.702 102.492 467.13 101.881 467.13 101.881L467.572 94.2274Z" fill="#F03E4C"/>
<path d="M467.8 105.278C467.671 105.278 467.572 105.172 467.58 105.041C467.587 104.909 467.697 104.802 467.827 104.802C471.318 104.802 473.092 102.318 473.109 102.294L473.437 102.225L473.485 102.555C473.408 102.665 471.542 105.278 467.8 105.278Z" fill="#1D2A30"/>
<path d="M475.327 91.3597C475.192 91.413 475.039 91.405 474.915 91.3236C473.196 90.2232 471.594 90.9608 471.577 90.9702C471.357 91.0849 471.066 90.9835 470.967 90.7474C470.868 90.51 470.983 90.2259 471.223 90.1112C471.307 90.0698 473.315 89.1428 475.446 90.5113C475.66 90.6474 475.712 90.9408 475.564 91.1636L475.327 91.3597Z" fill="#1D2A30"/>
<path d="M461.259 88.6986L461.08 88.5973C460.898 88.4225 460.897 88.1224 461.08 87.925C462.909 85.959 465.029 86.2577 465.118 86.2711C465.367 86.3004 465.533 86.5512 465.479 86.8126C465.427 87.0727 465.181 87.2501 464.928 87.2128C464.858 87.2034 463.203 86.9873 461.742 88.5586C461.612 88.6987 461.421 88.7466 461.259 88.6986Z" fill="#1D2A30"/>
<path d="M510.545 143.207L496.918 139.514C496.918 139.514 483.555 173.004 478.835 175.19C472.413 178.166 456.15 188.459 449.24 193.421C448.857 195.079 449.157 199.503 450.027 200.707C461.779 198.532 484.388 189.682 489.103 185.184C499.853 174.928 510.545 143.207 510.545 143.207Z" fill="#F47372"/>
<path d="M499.691 471.36C499.57 471.36 499.465 471.379 499.385 471.42C499.319 471.454 499.243 471.514 499.222 471.698C499.177 472.077 499.263 472.36 499.488 472.563C500 473.026 501.286 473.087 502.979 472.743C501.904 472.087 500.447 471.36 499.691 471.36ZM501.037 473.438C500.286 473.438 499.592 473.307 499.167 472.927C498.831 472.624 498.693 472.2 498.756 471.669C498.804 471.273 499.022 471.085 499.195 470.997C500.308 470.427 503.386 472.416 503.733 472.644L503.826 472.887L503.638 473.077C502.944 473.246 501.948 473.438 501.037 473.438Z" fill="#4870C0"/>
<path d="M501.827 469.013L501.72 469.02C501.415 469.059 501.38 469.202 501.367 469.26C501.204 469.922 502.365 471.585 503.336 472.369C503.269 471.522 503.051 469.834 502.352 469.223C502.192 469.083 502.02 469.013 501.827 469.013ZM503.583 473.084L503.473 473.058C502.484 472.492 500.638 470.291 500.912 469.172C500.961 468.97 501.128 468.619 501.692 468.549C502.06 468.503 502.386 468.607 502.669 468.853C503.76 469.807 503.83 472.705 503.831 472.828L503.713 473.046L503.583 473.084Z" fill="#4870C0"/>
<path d="M464.121 470.194C463.943 470.238 463.801 470.3 463.708 470.385C463.626 470.459 463.596 470.545 463.607 470.667C463.643 470.985 463.778 471.206 464.023 471.343C464.718 471.728 466.334 471.422 468.413 470.537C466.951 470.226 465.041 469.966 464.121 470.194ZM466.251 471.78C465.287 472.016 464.367 472.087 463.78 471.762C463.407 471.557 463.192 471.213 463.144 470.743C463.112 470.465 463.205 470.221 463.41 470.038C464.465 469.08 468.737 470.109 469.223 470.23L469.388 470.437L469.24 470.678C468.448 471.045 467.321 471.514 466.251 471.78Z" fill="#4870C0"/>
<path d="M466.1 467.323L465.963 467.365C465.557 467.51 465.561 467.678 465.562 467.734C465.576 468.424 467.46 469.69 468.788 470.118C468.524 469.382 467.887 467.896 466.955 467.427C466.673 467.286 466.391 467.25 466.1 467.323ZM469.197 470.692L469.099 470.695C467.83 470.457 465.119 468.921 465.093 467.773C465.086 467.505 465.211 467.137 465.832 466.918C466.281 466.746 466.746 466.781 467.181 466.998C468.604 467.713 469.348 470.274 469.381 470.383L469.323 470.616L469.197 470.692Z" fill="#4870C0"/>
<path d="M450.349 192.634L436.69 199.036L435.104 202.962L440.152 206.419C440.152 206.419 449.575 205.376 452.258 199.211L450.349 192.634Z" fill="#F47372"/>
<path d="M450.93 200.934C450.075 195.768 448.407 193.41 448.392 193.386L450.545 191.743C450.629 191.855 452.61 194.577 453.586 200.479L450.93 200.934Z" fill="#1D2A30"/>
<path d="M453.257 194.525C453.7 195.641 452.989 196.986 451.667 197.53C450.345 198.074 448.916 197.61 448.473 196.494C448.031 195.379 448.742 194.033 450.064 193.49C451.384 192.946 452.815 193.409 453.257 194.525Z" fill="#1D2A30"/>
<path d="M427.458 204.206L429.272 206.077L441.53 200.739L436.69 199.036L427.458 204.206Z" fill="#F47372"/>
<path d="M463.832 460.86L460.975 455.449L480.102 448L481.967 453.106L477.449 455.037L468.167 459.007H468.165L463.832 460.86Z" fill="#395EB4"/>
<path d="M517.765 459.611H497.91L496.492 453.709L517.161 454.47L517.765 459.611Z" fill="#395EB4"/>
<path d="M514.098 139.37C517.703 151.197 503.67 167.354 503.67 167.354L484.221 159.27C484.221 159.27 486.963 150.678 492.176 139.167C498.104 126.082 510.46 127.433 514.098 139.37Z" fill="#4870C0"/>
<path d="M503.67 167.354L501.141 166.302L487.703 160.718L484.221 159.27C484.221 159.27 486.963 150.678 492.176 139.167C495.049 132.827 499.43 129.875 503.597 129.875C508.031 129.875 512.223 133.215 514.098 139.37C514.511 140.721 514.693 142.128 514.69 143.562C514.679 154.678 503.67 167.354 503.67 167.354Z" fill="#395EB4"/>
<path d="M320.786 22.203H312.418V20.8318H320.786V22.203Z" fill="#4870C0"/>
<path d="M429.491 98.1542L428.148 98.0929L429.153 75.2043L430.496 75.2669L429.491 98.1542Z" fill="#4870C0"/>
<path d="M426.552 26.9995H271.974L257.584 354.748H412.163L426.552 26.9995Z" fill="#258AFF"/>
<path d="M407.548 359.247H403.132L403.328 354.748H407.746L407.548 359.247ZM271.579 35.9949H267.163L267.36 31.4972H271.777L271.579 35.9949Z" fill="#FEFFFF"/>
<path d="M407.746 354.748H403.328L417.323 35.9948H271.579L271.777 31.4972H421.938L407.746 354.748Z" fill="#A9C2E9"/>
<path d="M402.934 363.743H350.293V359.247H403.132L402.934 363.743Z" fill="#F5F8FD"/>
<path d="M350.293 363.743H346.049V361.517H250.59C251.245 359.919 251.841 358.339 252.367 356.791H253.078L252.971 359.247H350.293V363.743ZM345.543 363.743H249.645C249.896 363.171 250.14 362.6 250.377 362.032H345.543V363.743ZM253.1 356.275H252.54C252.771 355.572 252.99 354.872 253.193 354.181L253.1 356.275Z" fill="#F0F5FC"/>
<path d="M253.078 356.791H252.366C252.425 356.618 252.481 356.449 252.539 356.275H253.1L253.078 356.791Z" fill="#D7DCE6"/>
<path d="M346.048 363.743H345.542V362.032H250.376C250.448 361.859 250.519 361.689 250.59 361.517H346.048V363.743Z" fill="#D7DCE6"/>
<path d="M254.57 322.823H250.746C250.574 322.324 250.399 321.826 250.218 321.326L262.745 35.9949H267.163L254.57 322.823Z" fill="#F5F8FD"/>
<path d="M254.041 334.871C253.62 332.658 253.069 330.384 252.405 328.065H254.339L254.041 334.871ZM254.362 327.548H252.257C251.801 325.99 251.295 324.413 250.746 322.823H254.57L254.362 327.548Z" fill="#F0F5FC"/>
<path d="M254.339 328.065H252.404C252.355 327.892 252.306 327.72 252.256 327.548H254.361L254.339 328.065Z" fill="#D7DCE6"/>
<path d="M403.131 359.247H350.292V354.748H403.328L403.131 359.247ZM258.985 322.823H254.569L267.162 35.9949H271.578L259.731 305.866H256.323C256.323 308.928 257.43 311.809 259.36 314.297L258.985 322.823Z" fill="#F2F6FC"/>
<path d="M350.292 359.247H252.97L253.077 356.791H346.048V354.748H350.292V359.247ZM345.542 356.275H253.099L253.192 354.181C254.322 350.326 254.964 346.688 254.961 343.401C254.961 343.121 254.956 342.845 254.947 342.571C254.86 340.12 254.546 337.54 254.04 334.871L254.339 328.065H258.756L257.584 354.748H345.542V356.275ZM258.778 327.548H254.361L254.569 322.823H258.985L258.778 327.548Z" fill="#F0F5FC"/>
<path d="M346.048 356.791H253.077L253.099 356.275H345.542V354.748H346.048V356.791ZM258.756 328.065H254.339L254.361 327.548H258.778L258.756 328.065Z" fill="#E5EAF4"/>
<path d="M259.361 314.297C257.431 311.809 256.324 308.928 256.324 305.866H259.732L259.361 314.297Z" fill="#E5EAF4"/>
<path d="M403.328 354.748H257.584L258.756 328.065L258.779 327.548L258.986 322.823L259.36 314.297L259.731 305.866L271.579 35.9949H417.323L403.328 354.748ZM283.836 305.561L282.517 335.625H371.242L372.561 305.561H283.836ZM309.288 118.019C315.01 126.56 324.648 132.111 335.808 132.111C346.967 132.111 357.106 126.56 363.579 118.019C367.864 112.386 370.539 105.45 370.868 97.9395C371.697 79.0657 357.344 63.7693 338.808 63.7693C320.285 63.7693 304.591 79.0657 303.761 97.9395C303.431 105.45 305.497 112.386 309.288 118.019Z" fill="#EDF5FF"/>
<path d="M399.728 178.939H267.788L266.688 204.025H398.628L399.728 178.939Z" fill="white"/>
<path d="M340.357 160.646H268.592L268.1 171.869H339.864L340.357 160.646Z" fill="#258AFF"/>
<path d="M396.757 246.623H264.816L263.716 271.707H395.655L396.757 246.623Z" fill="white"/>
<path d="M371.243 335.625H282.518L283.837 305.561H372.562L371.243 335.625Z" fill="#258AFF"/>
<path d="M278.065 339.964H366.477L367.783 310.218H279.37L278.065 339.964ZM366.627 340.281H277.903L277.789 340.232L277.747 340.116L279.068 310.051L279.222 309.898H367.946L368.06 309.948L368.1 310.064L366.781 340.129L366.627 340.281Z" fill="white"/>
<path d="M324.851 228.328H265.62L265.127 239.551H324.359L324.851 228.328Z" fill="#258AFF"/>
<path d="M370.868 97.9394C370.539 105.45 367.864 112.386 363.579 118.019C357.106 126.56 346.967 132.111 335.808 132.111C324.648 132.111 315.011 126.56 309.289 118.019C305.498 112.386 303.432 105.45 303.762 97.9394C304.591 79.0657 320.285 63.7693 338.808 63.7693C357.345 63.7693 371.697 79.0657 370.868 97.9394Z" fill="white"/>
<path d="M374.025 70.9213C373.936 72.9167 373.226 74.7601 372.087 76.2566C370.368 78.5255 367.673 80.002 364.707 80.002C361.743 80.002 359.183 78.5255 357.661 76.2566C356.655 74.7601 356.106 72.9167 356.192 70.9213C356.413 65.9061 360.584 61.8419 365.507 61.8419C370.431 61.8419 374.246 65.9061 374.025 70.9213Z" fill="#258AFF"/>
<path d="M281.997 191.481C281.9 193.702 280.053 195.501 277.873 195.501C275.693 195.501 274.005 193.702 274.102 191.481C274.2 189.262 276.046 187.462 278.227 187.462C280.407 187.462 282.094 189.262 281.997 191.481Z" fill="#1D2A30"/>
<path d="M299.665 191.481C299.568 193.702 297.722 195.501 295.541 195.501C293.361 195.501 291.672 193.702 291.771 191.481C291.868 189.262 293.713 187.462 295.895 187.462C298.074 187.462 299.763 189.262 299.665 191.481Z" fill="#1D2A30"/>
<path d="M317.334 191.481C317.237 193.702 315.39 195.501 313.21 195.501C311.029 195.501 309.342 193.702 309.439 191.481C309.535 189.262 311.383 187.462 313.562 187.462C315.742 187.462 317.431 189.262 317.334 191.481Z" fill="#1D2A30"/>
<path d="M279.026 259.165C278.928 261.385 277.082 263.184 274.902 263.184C272.723 263.184 271.034 261.385 271.131 259.165C271.228 256.945 273.075 255.145 275.255 255.145C277.435 255.145 279.123 256.945 279.026 259.165Z" fill="#1D2A30"/>
<path d="M296.694 259.165C296.597 261.385 294.75 263.184 292.57 263.184C290.389 263.184 288.702 261.385 288.799 259.165C288.897 256.945 290.743 255.145 292.923 255.145C295.104 255.145 296.793 256.945 296.694 259.165Z" fill="#1D2A30"/>
<path d="M314.362 259.165C314.265 261.385 312.418 263.184 310.238 263.184C308.059 263.184 306.37 261.385 306.467 259.165C306.565 256.945 308.411 255.145 310.592 255.145C312.772 255.145 314.461 256.945 314.362 259.165Z" fill="#1D2A30"/>
<path d="M332.031 259.165C331.933 261.385 330.087 263.184 327.907 263.184C325.726 263.184 324.038 261.385 324.136 259.165C324.233 256.945 326.08 255.145 328.26 255.145C330.44 255.145 332.128 256.945 332.031 259.165Z" fill="#1D2A30"/>
<path d="M349.698 259.165C349.601 261.385 347.755 263.184 345.575 263.184C343.395 263.184 341.707 261.385 341.804 259.165C341.901 256.945 343.747 255.145 345.928 255.145C348.108 255.145 349.797 256.945 349.698 259.165Z" fill="#1D2A30"/>
<path d="M351.389 86.5178C351.054 94.1514 344.706 100.339 337.21 100.339C329.713 100.339 323.908 94.1514 324.243 86.5178C324.579 78.8857 330.926 72.698 338.423 72.698C345.92 72.698 351.725 78.8857 351.389 86.5178Z" fill="#4870C0"/>
<path d="M363.578 118.019C357.106 126.56 346.966 132.111 335.808 132.111C324.648 132.111 315.01 126.56 309.288 118.019C315.655 111.565 325.734 107.37 336.894 107.37C348.067 107.37 357.776 111.565 363.578 118.019Z" fill="#4870C0"/>
<path d="M337.209 100.339C329.918 100.339 324.226 94.4848 324.229 87.1407C324.229 86.934 324.234 86.7273 324.243 86.5178C324.578 78.8857 330.925 72.698 338.422 72.698C345.714 72.698 351.406 78.5522 351.403 85.895C351.403 86.1017 351.398 86.3098 351.389 86.5178C351.053 94.1514 344.705 100.339 337.209 100.339Z" fill="#258AFF"/>
<path d="M335.808 132.111C324.648 132.111 315.01 126.56 309.288 118.019C315.655 111.565 325.734 107.37 336.894 107.37C348.067 107.37 357.776 111.565 363.578 118.019C357.106 126.56 346.966 132.111 335.808 132.111Z" fill="#258AFF"/>
<path d="M170.835 210.067C169.593 212.837 168.288 215.886 167.14 218.86C165.985 221.861 164.832 224.864 163.829 227.91C161.875 234.003 160.045 240.152 159.145 246.317L158.847 248.281C158.823 248.517 158.84 248.853 158.942 249.275C159.135 250.123 159.654 251.256 160.382 252.369C161.857 254.618 163.948 256.898 166.202 259.013C168.452 261.162 170.895 263.216 173.434 265.169C175.947 267.138 178.599 269.065 181.193 270.871L178.752 275.55C172.519 272.777 166.715 269.459 161.092 265.297C158.328 263.152 155.598 260.842 153.18 257.722C151.988 256.148 150.816 254.37 150.047 252.023C149.675 250.852 149.417 249.527 149.416 248.096C149.424 247.765 149.442 247.304 149.464 247.081L149.53 246.419L149.66 245.093C150.372 238.023 151.91 231.227 153.937 224.635C154.959 221.343 156.05 218.086 157.294 214.887C158.565 211.667 159.819 208.578 161.406 205.34L170.835 210.067Z" fill="#F47372"/>
<path d="M179.357 270.076L188.614 265.294L186.222 275.654C186.222 275.654 179.866 277.46 176.91 274.32L179.357 270.076Z" fill="#F47372"/>
<path d="M197.091 266.994L194.628 275.557L186.222 275.654L188.614 265.294L197.091 266.994Z" fill="#F47372"/>
<path d="M210.167 160.127C210.167 160.127 210.97 163.133 212.243 165.399C211.148 166.44 210.167 166.078 210.167 166.078V160.127Z" fill="#F03E4C"/>
<path d="M208.911 158.676C208.911 159.52 209.351 160.204 209.892 160.204C210.435 160.204 210.873 159.52 210.873 158.676C210.873 157.833 210.435 157.147 209.892 157.147C209.351 157.147 208.911 157.833 208.911 158.676Z" fill="#1D2A30"/>
<path d="M209.653 157.195L211.645 156.611C211.645 156.611 210.621 158.194 209.653 157.195Z" fill="#1D2A30"/>
<path d="M184.575 169.909C185.771 176.119 186.963 187.496 182.696 191.64C182.696 191.64 184.364 197.938 195.695 197.938C208.156 197.938 201.651 191.64 201.651 191.64C194.85 189.987 195.026 184.849 196.21 180.025L184.575 169.909Z" fill="#F47372"/>
<path d="M181.268 155.779C181.893 166.145 181.94 170.545 187.082 175.866C194.816 183.87 207.184 180.821 209.614 170.473C211.8 161.161 210.41 145.773 200.445 141.647C190.627 137.582 180.643 145.413 181.268 155.779Z" fill="#F47372"/>
<path d="M182.272 144.05C177.167 145.946 170.355 144.534 173.029 160.579C175.859 177.568 171.503 183.157 171.503 183.157C171.503 183.157 190.879 187.36 210.661 182.905C210.661 182.905 204.622 172.151 206.316 164.306C208.478 154.297 206.764 150.598 206.764 150.598C206.764 150.598 189.453 141.385 182.272 144.05Z" fill="#1D2A30"/>
<path d="M203.888 161.182C203.867 163.236 204.575 165.305 205.492 166.741C206.872 168.903 208.509 168.023 208.919 165.78C209.288 163.759 209.014 160.202 207.247 158.821C205.506 157.462 203.913 158.833 203.888 161.182Z" fill="#F47372"/>
<path d="M177.838 145.864C176.364 141.669 183.365 135.217 198.165 137.901C212.965 140.583 213.614 153.118 213.614 153.118L210.62 149.499L210.753 153.31L195.544 156.285L177.838 145.864Z" fill="#1D2A30"/>
<path d="M179.092 192.344C178.889 191.064 179.734 189.855 180.992 189.645C185.601 188.87 196.076 187.3 201.349 188.044C205.264 188.598 206.3 190.926 206.467 192.83C206.589 194.242 205.442 195.433 204.051 195.369L181.271 194.321C180.178 194.272 179.267 193.446 179.092 192.344Z" fill="#4870C0"/>
<path d="M206.376 192.182C204.809 191.973 203.21 191.785 201.651 191.64C198.93 191.388 196.29 191.291 193.589 191.291C190.158 191.291 186.626 191.447 182.696 191.64C181.474 191.7 180.255 191.788 179.062 191.895C179.094 190.792 179.883 189.831 180.992 189.645C184.756 189.012 192.43 187.849 197.989 187.849C199.239 187.849 200.38 187.908 201.348 188.044C204.829 188.536 206.034 190.43 206.376 192.182Z" fill="#223263"/>
<path d="M192.256 425.373L200.699 431.34L214.836 411.832L206.393 405.866L192.256 425.373Z" fill="#F47372"/>
<path d="M172.547 424.98L181.478 430.158L193.99 409.526L185.06 404.346L172.547 424.98Z" fill="#F47372"/>
<path d="M214.829 411.837L207.544 421.893L199.099 415.924L206.384 405.867L214.829 411.837Z" fill="#EB5559"/>
<path d="M185.055 404.352L193.989 409.532L187.535 420.163L178.601 414.984L185.055 404.352Z" fill="#EB5559"/>
<path d="M199.379 257.479C199.379 257.479 232.365 299.809 226.177 340.286C221.179 372.98 192.232 417.253 192.232 417.253L178.621 410.365C178.621 410.365 193.41 380.943 203.119 349.753C207.192 336.674 205.455 322.264 197.843 310.942C181.134 286.093 154.364 300.878 172.371 257.479H199.379Z" fill="#4870C0"/>
<path d="M192.232 417.253L189.99 416.119L181.319 411.731V404.78C186.037 394.792 195.959 372.753 203.119 349.753C204.543 345.18 205.257 340.445 205.257 335.737C205.258 330.467 204.368 325.231 202.579 320.292C205.494 319.517 207.661 316.806 207.661 313.604V299.503C207.661 298.692 207.522 297.913 207.268 297.189C210.071 301.15 212.821 305.213 215.402 309.286C218.13 326.487 221.306 346.441 222.667 354.993C223.268 353.074 223.816 351.164 224.304 349.275C224.219 349.606 224.132 349.941 224.042 350.273C223.879 350.882 223.711 351.491 223.537 352.103C222.349 356.274 220.904 360.517 219.292 364.737C214.279 377.871 207.66 390.775 202.224 400.502C202.024 400.862 201.825 401.216 201.628 401.567C200.05 404.369 198.585 406.883 197.303 409.038C197.18 409.243 197.058 409.447 196.94 409.646C194.087 414.414 192.232 417.253 192.232 417.253ZM205.003 294.028C203.858 293.129 202.425 292.593 200.875 292.593H174.224C169.575 289.753 166.383 286.486 166.383 279.696C166.383 274.977 167.926 268.552 171.594 259.385H177.176C181.511 264.287 193.445 278.07 205.003 294.028Z" fill="#223263"/>
<path d="M224.305 349.275C225.095 346.213 225.731 343.204 226.177 340.286C226.671 337.063 226.914 333.824 226.947 330.599C226.948 330.602 226.948 330.603 226.95 330.606C226.917 333.829 226.673 337.064 226.181 340.286C225.731 343.202 225.096 346.213 224.305 349.275Z" fill="#939493"/>
<path d="M222.668 354.993C221.307 346.441 218.131 326.487 215.402 309.286C220.012 316.556 224.081 323.847 226.947 330.599C226.915 333.824 226.671 337.063 226.177 340.286C225.732 343.204 225.095 346.213 224.305 349.275C223.816 351.164 223.269 353.074 222.668 354.993Z" fill="#131D35"/>
<path d="M214.112 257.479C214.112 257.479 253.83 310.673 254.947 342.571C255.883 369.299 211.683 420.927 211.683 420.927L198.852 412.475C198.852 412.475 224.697 375.771 231.204 345.769C228.723 316.071 175.474 257.479 175.474 257.479H214.112Z" fill="#4870C0"/>
<path d="M211.682 420.927L209.355 419.393L200.71 413.699L198.851 412.475C198.851 412.475 224.696 375.771 231.203 345.769C230.827 341.274 229.288 336.114 226.947 330.599C224.08 323.847 220.011 316.556 215.402 309.286C212.821 305.213 210.071 301.15 207.268 297.189C206.824 295.927 206.029 294.832 205.003 294.028C193.445 278.07 181.511 264.287 177.176 259.385H214.318C214.694 259.385 215.006 259.197 215.03 258.957L215.049 258.759C221.057 267.035 253.931 313.591 254.947 342.571C254.956 342.845 254.961 343.121 254.961 343.401C254.964 346.688 254.322 350.326 253.192 354.181C252.989 354.872 252.771 355.572 252.539 356.275C252.481 356.449 252.425 356.618 252.366 356.791C251.84 358.339 251.244 359.919 250.589 361.517C250.519 361.689 250.448 361.859 250.376 362.032C250.139 362.6 249.895 363.171 249.644 363.743C245.795 372.513 240.302 381.782 234.686 390.245C234.571 390.417 234.458 390.588 234.344 390.759C233.271 392.368 232.193 393.948 231.125 395.487C231.006 395.659 230.887 395.83 230.768 396.001C228.45 399.323 226.172 402.458 224.042 405.307C223.872 405.534 223.704 405.759 223.537 405.982C222.028 407.991 220.601 409.848 219.292 411.525C214.769 417.322 211.682 420.927 211.682 420.927Z" fill="#223263"/>
<path d="M164.972 194.018C160.718 195.04 156.653 210.762 156.653 210.762L173.242 222.037C173.242 222.037 178.769 209.611 176.839 204.166C174.83 198.497 170.343 192.727 164.972 194.018Z" fill="#4870C0"/>
<path d="M170.267 220.016L169.72 219.643L170.267 220.015V220.016Z" fill="#CECDCC"/>
<path d="M170.267 220.015L169.719 219.643L167.059 217.83L167.927 207.571C168.876 212.192 169.645 216.296 170.267 220.015Z" fill="#395EB4"/>
<path d="M219.023 194.321C219.023 194.321 223.92 196.076 214.112 257.479C197.548 257.479 180.431 257.479 172.372 257.479C173.072 240.181 173.092 229.516 164.973 194.018C164.973 194.018 173.718 192.08 182.697 191.64C189.721 191.296 195.476 191.066 201.651 191.64C209.792 192.398 219.023 194.321 219.023 194.321Z" fill="#4870C0"/>
<path d="M223.262 204.071C224.207 206.732 225.208 209.609 226.248 212.374C227.248 215.181 228.287 217.979 229.357 220.768L232.569 229.146L233.381 231.24L233.789 232.286L233.993 232.81L234.009 232.885C233.952 232.861 233.904 232.595 233.092 232.054C232.694 231.802 232.027 231.559 231.381 231.544C230.732 231.522 230.218 231.682 229.924 231.812C229.333 232.1 229.324 232.223 229.337 232.203C229.375 232.183 229.497 232.064 229.632 231.9C230.205 231.201 230.895 229.993 231.503 228.793C232.122 227.569 232.708 226.262 233.291 224.938C234.45 222.278 235.505 219.505 236.578 216.725C237.639 213.939 238.638 211.111 239.629 208.276L242.612 199.763L247.659 201.058C246.661 207.147 245.369 213.111 243.83 219.097C243.078 222.094 242.208 225.069 241.214 228.07C240.719 229.573 240.164 231.072 239.528 232.601C238.865 234.143 238.21 235.661 237.037 237.425C236.731 237.872 236.381 238.344 235.895 238.864C235.382 239.375 234.788 239.995 233.508 240.581C232.873 240.86 231.986 241.107 230.966 241.065C229.948 241.036 228.915 240.669 228.202 240.217C226.749 239.274 226.247 238.374 225.819 237.699C225.62 237.36 225.449 237.01 225.331 236.758L225.082 236.241L224.586 235.206L223.596 233.134C222.301 230.36 221.033 227.568 219.831 224.747C218.641 221.919 217.482 219.076 216.358 216.211C215.281 213.301 214.217 210.483 213.271 207.389L223.262 204.071Z" fill="#F47372"/>
<path d="M219.023 194.321C224.04 195.537 229.679 210.631 229.679 210.631L214.767 223.567C214.767 223.567 205.104 207.108 207.059 201.674C209.095 196.015 212.469 192.731 219.023 194.321Z" fill="#4870C0"/>
<path d="M244.938 195.057L250.17 190.601L253.811 196.375L251.129 201.197C251.129 201.197 246.859 205.176 243.077 203.152C241.859 200.333 242.617 197.033 244.938 195.057Z" fill="#F47372"/>
<path d="M259.671 190.614L259.278 192.065L250.988 193.483L250.171 190.601L259.671 190.614Z" fill="#F47372"/>
<path d="M212.747 421.628L197.788 411.775L200.467 407.033L217.278 417.554L212.747 421.628Z" fill="#4870C0"/>
<path d="M184.362 428.005C185.99 428.848 187.299 429.16 187.929 428.839C188.197 428.704 188.352 428.449 188.404 428.061C188.432 427.853 188.36 427.76 188.293 427.705C187.766 427.251 185.798 427.605 184.362 428.005ZM187.308 429.46C186.118 429.46 184.553 428.692 183.605 428.155L183.481 427.913L183.649 427.702C184.054 427.571 187.601 426.464 188.607 427.324C188.765 427.46 188.942 427.711 188.887 428.127C188.812 428.682 188.564 429.072 188.148 429.282C187.905 429.406 187.62 429.46 187.308 429.46Z" fill="#1D2A30"/>
<path d="M186.264 424.549C186.142 424.549 186.021 424.578 185.897 424.638C185.095 425.032 184.422 426.596 184.101 427.546C185.254 427.052 186.827 425.743 186.883 425.011C186.893 424.893 186.866 424.738 186.577 424.615L186.264 424.549ZM183.724 428.186L183.548 428.11L183.489 427.871C183.523 427.749 184.341 424.852 185.686 424.191C186.045 424.016 186.409 424.006 186.766 424.158C187.331 424.399 187.387 424.822 187.368 425.052C187.276 426.25 184.875 427.906 183.781 428.178L183.724 428.186Z" fill="#1D2A30"/>
<path d="M202.226 432.286C203.881 433.926 205.329 434.832 206.159 434.719C206.45 434.682 206.67 434.522 206.834 434.229L206.851 433.916C206.501 433.203 204.069 432.588 202.226 432.286ZM206.022 435.224C204.547 435.224 202.489 433.293 201.364 432.107L201.32 431.825L201.569 431.689C202.087 431.757 206.643 432.384 207.287 433.693C207.411 433.946 207.4 434.218 207.257 434.474C207.016 434.906 206.666 435.154 206.22 435.213L206.022 435.224Z" fill="#1D2A30"/>
<path d="M202.032 431.745C203.496 431.829 205.835 431.333 206.141 430.683C206.167 430.628 206.244 430.465 205.905 430.167C205.622 429.922 205.294 429.818 204.917 429.853C203.815 429.952 202.589 431.14 202.032 431.745ZM202.369 432.245C202.034 432.245 201.732 432.224 201.495 432.178L201.311 432.021L201.351 431.777C201.426 431.685 203.198 429.51 204.874 429.36C205.398 429.318 205.841 429.46 206.22 429.791C206.735 430.24 206.7 430.64 206.579 430.895C206.164 431.785 203.9 432.245 202.369 432.245Z" fill="#1D2A30"/>
<path d="M184.083 426.782L172.973 423.584C172.568 423.467 172.16 423.66 171.993 424.044L168.241 432.63C167.852 433.521 168.392 434.626 169.329 434.879C173.222 435.925 175.154 436.23 180.04 437.638C183.045 438.502 187.349 440.084 191.5 441.28C195.56 442.447 197.032 438.358 195.409 437.483C188.129 433.555 187.556 430.862 185.564 427.878C185.205 427.338 184.675 426.952 184.083 426.782Z" fill="#4870C0"/>
<path d="M201.666 430.551L192.182 423.844C191.836 423.602 191.391 423.648 191.108 423.956L184.817 430.832C184.165 431.547 184.323 432.771 185.129 433.319C188.475 435.598 190.203 436.527 194.374 439.476C196.94 441.288 202.063 445.312 205.605 447.818C209.072 450.268 211.77 446.889 210.515 445.522C204.888 439.396 203.646 435.557 202.717 432.076C202.549 431.447 202.172 430.907 201.666 430.551Z" fill="#4870C0"/>
<path d="M193.978 418.135L176.875 409.481L178.645 404.768L196.901 413.881L193.978 418.135Z" fill="#4870C0"/>
<path d="M171.746 254.985L170.3 258.789C170.153 259.084 170.496 259.385 170.978 259.385H214.318C214.694 259.385 215.006 259.197 215.03 258.957L215.407 255.153C215.432 254.889 215.106 254.665 214.694 254.665H172.426C172.116 254.665 171.84 254.794 171.746 254.985Z" fill="#4870C0"/>
<path d="M214.319 259.385H170.979C170.574 259.385 170.266 259.173 170.265 258.931C170.265 258.884 170.276 258.836 170.3 258.789L171.746 254.985C171.841 254.794 172.116 254.665 172.426 254.665H214.695C215.09 254.665 215.407 254.872 215.409 255.122C215.409 255.132 215.407 255.142 215.407 255.153L215.03 258.957C215.006 259.197 214.695 259.385 214.319 259.385Z" fill="#8DAEE0"/>
<path d="M178.563 259.796H177.43C177.205 259.796 177.033 259.679 177.049 259.533L177.579 254.592C177.595 254.448 177.793 254.329 178.018 254.329H179.15C179.375 254.329 179.547 254.448 179.531 254.592L179.001 259.533C178.985 259.679 178.787 259.796 178.563 259.796Z" fill="#4870C0"/>
<path d="M205.295 259.796H204.163C203.938 259.796 203.767 259.679 203.782 259.533L204.313 254.592C204.329 254.448 204.525 254.329 204.75 254.329H205.883C206.108 254.329 206.28 254.448 206.265 254.592L205.733 259.533C205.718 259.679 205.521 259.796 205.295 259.796Z" fill="#4870C0"/>
<path d="M177.483 485.696C177.472 485.696 177.46 485.696 177.449 485.696C158.066 485.694 142.405 484.533 142.469 483.102C142.504 482.311 147.32 481.604 154.886 481.127C154.845 482.099 155.505 483.102 156.72 483.102H177.581H198.439C199.658 483.102 200.319 482.093 200.274 481.121C207.884 481.597 212.698 482.309 212.661 483.105C212.598 484.536 196.851 485.696 177.483 485.696Z" fill="#EEEEEE"/>
<path d="M198.954 479.446C192.744 477.61 185.91 475.244 181.681 472.729C181.564 472.66 181.439 472.61 181.32 472.545V443.964H193.809C195.874 443.964 197.548 442.26 197.548 440.157C197.548 438.054 195.874 436.349 193.809 436.349H181.32V305.87H173.841V436.349H161.352C159.286 436.349 157.611 438.054 157.611 440.157C157.611 442.26 159.286 443.964 161.352 443.964H173.841V472.545C173.721 472.61 173.597 472.66 173.48 472.729C169.251 475.244 162.417 477.61 156.207 479.446C154.17 480.047 154.6 483.102 156.721 483.102H177.581H198.439C200.561 483.102 200.991 480.047 198.954 479.446Z" fill="#E3E3E2"/>
<path d="M200.875 320.514H154.285C150.553 320.514 147.499 317.405 147.499 313.604V299.503C147.499 295.702 150.553 292.593 154.285 292.593H200.875C204.607 292.593 207.661 295.702 207.661 299.503V313.604C207.661 317.405 204.607 320.514 200.875 320.514Z" fill="#4870C0"/>
<path d="M153.856 320.514V322.941C153.856 324.943 155.996 326.579 158.609 326.579H196.551C199.164 326.579 201.303 324.943 201.303 322.941V320.514H153.856Z" fill="#4870C0"/>
<path d="M196.551 326.579H158.609C155.996 326.579 153.856 324.943 153.856 322.941V320.514H201.303V322.941C201.303 324.943 199.164 326.579 196.551 326.579Z" fill="#799BD7"/>
</svg>
